<svg width="36" height="36" viewBox="0 0 36 36" fill="none" xmlns="http://www.w3.org/2000/svg">
<path opacity="0.934" fill-rule="evenodd" clip-rule="evenodd" d="M6.99612 1.58203C14.3087 1.57031 21.6212 1.58203 28.9336 1.61719C29.0901 1.70348 29.1956 1.83239 29.25 2.00391C29.2618 5.801 29.2969 9.59787 29.3555 13.3945C29.5446 13.525 29.6969 13.6891 29.8125 13.8867C31.3313 16.526 32.8313 19.1744 34.3125 21.832C34.4927 22.5804 34.2935 23.2015 33.7149 23.6953C32.7774 24.2344 31.8398 24.7734 30.9024 25.3125C29.9449 25.6378 29.1714 25.3917 28.5821 24.5742C28.1959 24.7556 27.8209 24.9548 27.4571 25.1719C27.8964 26.221 27.662 27.0882 26.7539 27.7734C27.1944 28.8473 26.9366 29.7145 25.9805 30.375C25.6433 30.5179 25.2918 30.5765 24.9258 30.5508C24.7984 31.686 24.1656 32.2954 23.0274 32.3789C22.9443 33.5167 22.3349 34.1495 21.1992 34.2773C20.9836 34.2698 20.7727 34.2347 20.5664 34.1719C19.9539 33.8597 19.3562 33.5199 18.7735 33.1523C18.129 34.2949 17.2032 34.6113 15.9961 34.1016C15.6797 33.8789 15.4102 33.6094 15.1875 33.293C14.2707 33.6087 13.4972 33.3977 12.8672 32.6602C12.7271 32.4972 12.6451 32.3097 12.6211 32.0977C11.1618 32.1847 10.3883 31.505 10.3008 30.0586C9.22081 29.9044 8.63489 29.2833 8.54299 28.1953C8.59475 27.7609 8.70021 27.3508 8.8594 26.9648C8.27349 26.2383 7.6875 25.5117 7.10159 24.7852C6.77992 25.2391 6.33461 25.4735 5.76565 25.4883C5.51506 25.4476 5.26896 25.3889 5.02737 25.3125C4.08987 24.7734 3.15237 24.2344 2.21487 23.6953C1.46409 22.9403 1.35862 22.1082 1.89846 21.1992C3.30471 18.7617 4.71096 16.3242 6.11721 13.8867C6.23279 13.6891 6.38513 13.525 6.57424 13.3945C6.63284 9.59787 6.66799 5.801 6.67971 2.00391C6.74857 1.8304 6.85404 1.68978 6.99612 1.58203ZM7.83987 2.77734C14.5899 2.77734 21.3399 2.77734 28.0899 2.77734C28.1133 6.19954 28.0899 9.62142 28.0196 13.043C26.8782 13.5667 25.7767 14.1644 24.7149 14.8359C24.2318 15.2776 24.0443 15.8167 24.1524 16.4531C23.386 16.6922 22.6008 16.8211 21.7969 16.8398C20.6963 16.773 19.6065 16.6207 18.5274 16.3828C17.6099 16.233 16.7427 16.3737 15.9258 16.8047C15.5618 17.0753 15.1985 17.3448 14.836 17.6133C13.8372 17.2687 12.8411 16.9171 11.8477 16.5586C11.911 15.8939 11.7 15.3196 11.2149 14.8359C10.153 14.1644 9.0515 13.5667 7.91018 13.043C7.83987 9.62142 7.81646 6.19954 7.83987 2.77734ZM7.48831 14.2383C7.78932 14.283 8.07057 14.3885 8.33206 14.5547C9.08799 14.9853 9.82627 15.4423 10.5469 15.9258C10.5918 16.0038 10.6269 16.0857 10.6524 16.1719C9.21005 18.8104 7.72175 21.4237 6.18753 24.0117C6.07183 24.1637 5.91949 24.2575 5.7305 24.293C4.70028 23.7845 3.72762 23.1986 2.81253 22.5352C2.76565 22.3711 2.76565 22.207 2.81253 22.043C4.21878 19.6054 5.62503 17.168 7.03128 14.7305C7.15039 14.5295 7.30275 14.3655 7.48831 14.2383ZM28.1602 14.2383C28.5078 14.2455 28.7539 14.4095 28.8985 14.7305C30.3047 17.168 31.711 19.6054 33.1172 22.043C33.18 22.2832 33.1448 22.5058 33.0117 22.7109C32.0857 23.2561 31.1481 23.7834 30.1992 24.293C30.0102 24.2575 29.8579 24.1637 29.7422 24.0117C28.208 21.4237 26.7197 18.8104 25.2774 16.1719C25.3184 15.9962 25.4121 15.8555 25.5586 15.75C26.4302 15.2442 27.2974 14.7403 28.1602 14.2383ZM17.2617 17.543C17.6608 17.5313 18.0593 17.543 18.4571 17.5781C20.5214 18.0626 22.5839 18.0861 24.6446 17.6484C25.7836 19.5729 26.9086 21.5065 28.0196 23.4492C27.504 23.7305 26.9883 24.0117 26.4727 24.293C24.1404 22.9276 21.7967 21.5799 19.4414 20.25C18.7011 20.024 17.9745 20.0709 17.2617 20.3906C16.8548 20.559 16.4564 20.7464 16.0664 20.9531C15.6942 21.6155 15.331 22.2834 14.9766 22.957C14.6491 23.3376 14.2389 23.5369 13.7461 23.5547C13.7003 23.2792 13.6769 22.998 13.6758 22.7109C13.69 21.8952 13.7486 21.0866 13.8516 20.2852C14.647 19.4263 15.5025 18.6411 16.418 17.9297C16.6979 17.7777 16.9792 17.6488 17.2617 17.543ZM11.2149 17.6836C12.1147 17.9406 13.0054 18.2335 13.8867 18.5625C13.4766 18.9726 13.0664 19.3828 12.6563 19.793C12.518 21.1257 12.4711 22.4617 12.5157 23.8008C12.707 24.4134 13.1289 24.7416 13.7813 24.7852C14.7243 24.7357 15.4743 24.3373 16.0313 23.5898C16.3477 23.0039 16.6641 22.4179 16.9805 21.832C17.4901 21.5606 18.0292 21.3731 18.5977 21.2695C18.8476 21.3086 19.0819 21.3905 19.3008 21.5156C21.5159 22.8225 23.7424 24.1115 25.9805 25.3828C26.5819 25.765 26.6288 26.2103 26.1211 26.7188C26.0157 26.7539 25.9102 26.7891 25.8047 26.8242C24.8864 26.3476 23.9841 25.8436 23.0977 25.3125C22.5355 25.242 22.2659 25.4881 22.2891 26.0508C22.368 26.2001 22.4734 26.329 22.6055 26.4375C23.6014 26.994 24.5858 27.5682 25.5586 28.1602C25.8454 28.5351 25.8219 28.8984 25.4883 29.25C25.2868 29.3524 25.0759 29.3759 24.8555 29.3203C23.8123 28.6932 22.7576 28.0838 21.6914 27.4922C21.1691 27.3426 20.8643 27.5302 20.7774 28.0547C20.8357 28.1824 20.8943 28.3113 20.9532 28.4414C21.8028 28.9542 22.6583 29.4581 23.5196 29.9531C23.8938 30.553 23.7415 30.9631 23.0625 31.1836C22.0748 30.6889 21.1021 30.1616 20.1446 29.6016C19.5316 29.5348 19.2855 29.8043 19.4063 30.4102C19.439 30.5108 19.4976 30.5928 19.5821 30.6562C20.3576 31.0576 21.0959 31.5146 21.7969 32.0273C21.9271 32.5877 21.7162 32.9392 21.1641 33.082C20.5428 32.8124 19.9452 32.496 19.3711 32.1328C19.671 30.8817 19.2023 30.0614 17.9649 29.6719C18.3282 28.2071 17.7657 27.3516 16.2774 27.1055C16.1756 25.9049 15.5193 25.2721 14.3086 25.207C14.0055 25.1909 13.7243 25.2612 13.4649 25.418C12.7108 24.4209 11.7733 24.1982 10.6524 24.75C10.2841 25.1297 9.95607 25.5399 9.668 25.9805C9.02752 25.2281 8.39471 24.4663 7.76956 23.6953C8.92852 21.6933 10.077 19.6894 11.2149 17.6836ZM11.5664 25.6289C12.1064 25.6651 12.3994 25.9464 12.4453 26.4727C11.9482 27.3203 11.3739 28.1055 10.7227 28.8281C10.0998 28.9079 9.78338 28.6384 9.77346 28.0195C10.2657 27.293 10.7578 26.5664 11.25 25.8398C11.3662 25.7766 11.4717 25.7063 11.5664 25.6289ZM14.0977 26.4023C14.755 26.3684 15.0714 26.673 15.0469 27.3164C14.2345 28.5311 13.379 29.7147 12.4805 30.8672C12.0749 30.9634 11.7585 30.8344 11.5313 30.4805C11.4844 30.3164 11.4844 30.1523 11.5313 29.9883C12.3476 28.7623 13.203 27.567 14.0977 26.4023ZM15.9258 28.3008C16.6012 28.2545 16.9176 28.5592 16.875 29.2148C16.2422 30.1289 15.6094 31.043 14.9766 31.957C14.4465 32.3841 14.0246 32.2903 13.711 31.6758C13.6881 31.5314 13.7116 31.3908 13.7813 31.2539C14.4804 30.2524 15.1953 29.268 15.9258 28.3008ZM17.3321 30.832C18.144 30.8419 18.4135 31.217 18.1407 31.957C17.9063 32.2852 17.6719 32.6133 17.4375 32.9414C17.0717 33.2286 16.7201 33.2051 16.3828 32.8711C16.3047 32.7382 16.246 32.5976 16.2071 32.4492C16.497 31.8442 16.8719 31.3052 17.3321 30.832Z" fill="white"/>
<path opacity="0.912" fill-rule="evenodd" clip-rule="evenodd" d="M13.043 5.02735C13.7857 4.98478 14.0318 5.3129 13.7813 6.01172C13.1836 6.60938 12.5859 7.20704 11.9883 7.80469C11.7304 7.94532 11.4727 7.94532 11.2148 7.80469C10.8984 7.48829 10.582 7.17188 10.2656 6.85547C10.0164 6.19165 10.2391 5.87525 10.9336 5.90625C11.1548 6.06879 11.3657 6.24457 11.5664 6.4336C12.0619 5.96139 12.5541 5.49263 13.043 5.02735Z" fill="white"/>
<path opacity="0.933" fill-rule="evenodd" clip-rule="evenodd" d="M16.1367 5.94141C19.2305 5.92969 22.3243 5.94141 25.418 5.97656C25.7863 6.20675 25.8682 6.52316 25.6641 6.92578C25.6006 7.01026 25.5186 7.06887 25.418 7.10156C22.3476 7.14846 19.2774 7.14846 16.207 7.10156C15.6698 6.74717 15.6464 6.36046 16.1367 5.94141Z" fill="white"/>
<path opacity="0.927" fill-rule="evenodd" clip-rule="evenodd" d="M13.1133 11.0742C13.7605 11.0536 14.0066 11.3583 13.8516 11.9883C13.207 12.6328 12.5625 13.2773 11.918 13.9219C11.7071 13.9688 11.4961 13.9688 11.2852 13.9219C10.9219 13.5586 10.5586 13.1953 10.1953 12.832C10.0421 12.189 10.2882 11.8961 10.9336 11.9531C11.1772 12.1263 11.3999 12.3255 11.6016 12.5508C12.0981 12.0424 12.6021 11.5502 13.1133 11.0742Z" fill="white"/>
<path opacity="0.933" fill-rule="evenodd" clip-rule="evenodd" d="M16.207 11.918C19.254 11.9062 22.3009 11.918 25.3477 11.9531C25.6513 12.0321 25.792 12.2313 25.7695 12.5508C25.7851 12.7822 25.6913 12.958 25.4883 13.0781C22.3711 13.125 19.2539 13.125 16.1367 13.0781C15.6547 12.6633 15.6781 12.2766 16.207 11.918Z" fill="white"/>
</svg>
