<svg width="36" height="36" viewBox="0 0 36 36" fill="none" xmlns="http://www.w3.org/2000/svg">
<g clip-path="url(#clip0_156_725)">
<path opacity="0.9" fill-rule="evenodd" clip-rule="evenodd" d="M28.2305 1.01955C31.597 0.903033 33.9993 2.35615 35.4375 5.37892C36.268 7.79212 35.9867 10.0656 34.5938 12.1992C32.9425 14.2489 30.7979 15.1512 28.1602 14.9063C24.5476 14.3405 22.4968 12.2428 22.0078 8.6133C21.8365 5.78029 22.9263 3.58889 25.2773 2.03908C26.2003 1.49323 27.1847 1.15339 28.2305 1.01955ZM28.4414 1.8633C31.217 1.77927 33.2443 2.95115 34.5234 5.37892C35.7392 8.64515 34.9306 11.2819 32.0977 13.2891C29.5664 14.6181 27.1758 14.4072 24.9258 12.6563C22.6356 10.3876 22.2019 7.79774 23.625 4.88674C24.7428 3.10319 26.3482 2.09538 28.4414 1.8633Z" fill="white"/>
<path opacity="0.889" fill-rule="evenodd" clip-rule="evenodd" d="M16.7695 1.30078C17.1997 1.44428 17.2934 1.7138 17.0508 2.10938C16.0525 2.24059 15.0682 2.4398 14.0976 2.70703C13.7045 2.62612 13.5756 2.39175 13.7109 2.00391C13.7461 1.96875 13.7812 1.93359 13.8164 1.89844C14.7936 1.61481 15.778 1.41559 16.7695 1.30078Z" fill="white"/>
<path opacity="0.889" fill-rule="evenodd" clip-rule="evenodd" d="M19.4414 1.30078C20.4154 1.40062 21.3763 1.5764 22.3243 1.82812C22.7124 2.03014 22.7593 2.28795 22.4649 2.60156C22.3711 2.61328 22.2774 2.625 22.1836 2.63672C21.2314 2.4155 20.2704 2.23972 19.3008 2.10938C18.9971 1.76716 19.044 1.49764 19.4414 1.30078Z" fill="white"/>
<path opacity="0.912" fill-rule="evenodd" clip-rule="evenodd" d="M-0.0351562 12.4805C-0.0351562 12.3867 -0.0351562 12.2929 -0.0351562 12.1992C0.406875 9.21059 0.840466 6.21058 1.26562 3.19922C1.40254 2.91398 1.6252 2.80851 1.93359 2.88281C2.44825 3.14293 2.87013 3.02574 3.19922 2.53125C4.78254 2.71328 6.23566 3.25235 7.55859 4.14844C8.118 4.17331 8.66876 4.25535 9.21094 4.39453C10.6781 3.99521 12.1664 3.86629 13.6758 4.00781C13.8626 4.21588 14.0501 4.42682 14.2383 4.64062C14.6054 4.72727 14.9804 4.77414 15.3633 4.78125C15.5088 4.8841 15.6026 5.02473 15.6445 5.20312C15.2044 8.26024 14.7708 11.3188 14.3438 14.3789C14.2852 14.5313 14.1797 14.6367 14.0273 14.6953C11.9784 14.9155 9.9277 15.1147 7.875 15.293C7.32157 15.2608 6.77081 15.2022 6.22266 15.1172C4.27024 14.3871 2.32493 13.6371 0.386719 12.8672C0.186318 12.7954 0.0456935 12.6665 -0.0351562 12.4805ZM7.13672 4.88672C5.89447 4.46477 4.67572 3.98431 3.48047 3.44531C3.51562 3.41016 3.55078 3.375 3.58594 3.33984C4.86396 3.65701 6.04755 4.17264 7.13672 4.88672ZM2.00391 3.83203C3.68831 4.45203 5.35236 5.11999 6.99609 5.83594C6.6057 8.59205 6.19555 11.346 5.76562 14.0977C4.14844 13.4414 2.53125 12.7851 0.914062 12.1289C1.25397 9.36295 1.61725 6.5973 2.00391 3.83203ZM12.0586 4.74609C12.4598 4.72298 12.8582 4.74642 13.2539 4.81641C13.1675 4.87133 13.0738 4.90648 12.9727 4.92188C11.8257 5.0577 10.6772 5.15145 9.52734 5.20312C10.369 4.98097 11.2127 4.82862 12.0586 4.74609ZM7.48828 5.09766C7.59621 5.0071 7.71335 5.0071 7.83984 5.09766C7.74232 5.11926 7.62511 5.11926 7.48828 5.09766ZM8.68359 5.23828C8.70012 5.19633 8.73527 5.17288 8.78906 5.16797C9.009 5.21745 9.23161 5.2526 9.45703 5.27344C9.1954 5.32112 8.93756 5.3094 8.68359 5.23828ZM14.2383 5.58984C14.4023 5.58984 14.5664 5.58984 14.7305 5.58984C14.3489 8.3546 13.9739 11.1202 13.6055 13.8867C11.8242 14.0859 10.043 14.2617 8.26172 14.4141C8.66313 11.6626 9.06159 8.90866 9.45703 6.15234C11.0592 5.95479 12.6529 5.76729 14.2383 5.58984ZM2.70703 5.73047C3.72123 6.10851 4.72905 6.50695 5.73047 6.92578C5.7539 7.00781 5.77735 7.08982 5.80078 7.17188C5.73736 7.55712 5.69049 7.94384 5.66016 8.33203C4.64659 7.96676 3.63878 7.58004 2.63672 7.17188C2.59476 7.0972 2.57131 7.01519 2.56641 6.92578C2.6397 6.52997 2.68658 6.13153 2.70703 5.73047ZM7.76953 5.94141C8.04502 6.00761 8.32627 6.05448 8.61328 6.08203C8.2267 8.84672 7.83998 11.6123 7.45312 14.3789C7.42402 14.411 7.38886 14.4345 7.34766 14.4492C7.16421 14.3979 6.97669 14.3627 6.78516 14.3438C6.70933 14.2964 6.66245 14.226 6.64453 14.1328C7.03976 11.4045 7.41473 8.6741 7.76953 5.94141ZM13.3242 7.20703C13.3945 7.20703 13.4648 7.20703 13.5352 7.20703C13.4964 7.70217 13.4027 8.18262 13.2539 8.64844C12.1757 8.75862 11.0976 8.86409 10.0195 8.96484C10.0898 8.49607 10.1602 8.02737 10.2305 7.55859C11.2735 7.4591 12.3048 7.34189 13.3242 7.20703Z" fill="white"/>
<path opacity="0.86" fill-rule="evenodd" clip-rule="evenodd" d="M28.7227 2.49605C28.9697 2.45216 29.1689 2.52247 29.3203 2.70699C29.3672 3.05855 29.3672 3.41011 29.3203 3.76168C29.0339 4.05126 28.7761 4.02782 28.5469 3.69136C28.5 3.38668 28.5 3.08199 28.5469 2.7773C28.5934 2.67297 28.6521 2.57922 28.7227 2.49605Z" fill="white"/>
<path opacity="0.891" fill-rule="evenodd" clip-rule="evenodd" d="M27.0351 3.41012C27.2193 3.39125 27.3951 3.41469 27.5625 3.48043C28.1056 4.73476 28.6212 6.00039 29.1094 7.27731C29.6684 7.57395 29.7739 7.98409 29.4258 8.50777C29.253 8.6176 29.0655 8.68792 28.8633 8.71871C28.2283 9.33015 27.6189 9.96296 27.0351 10.6171C26.529 10.8033 26.3063 10.6276 26.3672 10.0898C26.9744 9.4122 27.6072 8.75598 28.2656 8.12106C28.2822 7.96187 28.3174 7.8095 28.3711 7.66402C27.842 6.38175 27.3264 5.09269 26.8242 3.79684C26.8681 3.65023 26.9384 3.52132 27.0351 3.41012Z" fill="white"/>
<path opacity="0.904" fill-rule="evenodd" clip-rule="evenodd" d="M2.14453 4.74608C2.31024 4.7346 2.47431 4.74632 2.63672 4.78124C3.98426 5.28537 5.30848 5.83615 6.60938 6.43358C6.67089 6.53014 6.70605 6.6356 6.71484 6.74999C6.60283 7.4638 6.49736 8.1786 6.39844 8.89452C6.31298 9.32982 6.06689 9.45871 5.66016 9.28124C4.34692 8.78111 3.04613 8.25376 1.75781 7.69921C1.6963 7.60267 1.66114 7.4972 1.65234 7.3828C1.7578 6.64464 1.86327 5.90636 1.96875 5.16796C1.98534 5.00544 2.04394 4.86482 2.14453 4.74608ZM2.70703 5.73046C2.68658 6.13152 2.6397 6.52996 2.56641 6.92577C2.57131 7.01518 2.59476 7.09719 2.63672 7.17186C3.63878 7.58003 4.64659 7.96675 5.66016 8.33202C5.69049 7.94383 5.73736 7.55711 5.80078 7.17186C5.77735 7.08981 5.7539 7.0078 5.73047 6.92577C4.72905 6.50694 3.72123 6.1085 2.70703 5.73046Z" fill="white"/>
<path opacity="0.913" fill-rule="evenodd" clip-rule="evenodd" d="M13.3945 6.36323C13.6768 6.3516 13.958 6.36332 14.2383 6.39839C14.2969 6.45698 14.3555 6.51558 14.4141 6.57417C14.3603 7.37285 14.2665 8.16977 14.1328 8.9648C14.1214 9.1178 14.0628 9.24668 13.957 9.35152C12.4965 9.54333 11.0316 9.71911 9.5625 9.87886C9.38679 9.83787 9.24616 9.74414 9.14062 9.59761C9.20095 8.82326 9.29468 8.04982 9.42188 7.2773C9.42841 7.10102 9.48698 6.94865 9.59766 6.82027C10.8738 6.67177 12.1394 6.51942 13.3945 6.36323ZM13.3242 7.20698C12.3048 7.34184 11.2735 7.45906 10.2305 7.55855C10.1602 8.02732 10.0898 8.49602 10.0195 8.9648C11.0976 8.86404 12.1757 8.75857 13.2539 8.64839C13.4027 8.18257 13.4964 7.70213 13.5352 7.20698C13.4648 7.20698 13.3945 7.20698 13.3242 7.20698Z" fill="white"/>
<path opacity="0.858" fill-rule="evenodd" clip-rule="evenodd" d="M23.7304 7.55863C24.089 7.53578 24.4405 7.57094 24.7851 7.6641C24.9908 7.92398 24.9674 8.15833 24.7148 8.36723C24.3398 8.41412 23.9648 8.41412 23.5898 8.36723C23.3728 8.04526 23.4197 7.77576 23.7304 7.55863Z" fill="white"/>
<path opacity="0.851" fill-rule="evenodd" clip-rule="evenodd" d="M33.293 7.55863C33.6515 7.53578 34.0031 7.57094 34.3477 7.6641C34.5424 7.91772 34.519 8.15207 34.2774 8.36723C33.9024 8.41412 33.5273 8.41412 33.1524 8.36723C32.8652 8.04393 32.9121 7.77442 33.293 7.55863Z" fill="white"/>
<path opacity="0.856" fill-rule="evenodd" clip-rule="evenodd" d="M28.7227 12.0586C28.8884 12.0471 29.0524 12.0588 29.2149 12.0937C29.2589 12.1465 29.294 12.2051 29.3203 12.2695C29.3672 12.6211 29.3672 12.9726 29.3203 13.3242C29.0339 13.6138 28.7761 13.5903 28.5469 13.2539C28.5 12.9492 28.5 12.6445 28.5469 12.3398C28.5934 12.2355 28.6521 12.1418 28.7227 12.0586Z" fill="white"/>
<path opacity="0.896" fill-rule="evenodd" clip-rule="evenodd" d="M32.8008 16.1367C33.4574 16.0442 33.6917 16.3254 33.5039 16.9804C33.4905 17.8771 33.3733 18.756 33.1523 19.6172C32.6886 19.8312 32.4542 19.6906 32.4492 19.1953C32.5801 18.2504 32.6621 17.3011 32.6953 16.3476C32.7314 16.2754 32.7665 16.2051 32.8008 16.1367Z" fill="white"/>
<path opacity="0.896" fill-rule="evenodd" clip-rule="evenodd" d="M3.05861 16.2071C3.56367 16.125 3.78633 16.3359 3.72658 16.8399C3.74207 17.6553 3.82411 18.4639 3.97267 19.2656C3.92661 19.7186 3.69223 19.8592 3.26955 19.6875C3.12541 19.3659 3.04338 19.026 3.02345 18.668C2.92137 17.8971 2.89793 17.1236 2.95314 16.3477C3.00357 16.3094 3.03872 16.2625 3.05861 16.2071Z" fill="white"/>
<path opacity="0.906" fill-rule="evenodd" clip-rule="evenodd" d="M22.1133 20.7773C25.784 20.7651 28.2332 22.476 29.461 25.9101C30.1975 29.5333 28.9904 32.2872 25.8399 34.1718C22.5455 35.5716 19.6744 34.9739 17.2266 32.3788C15.3004 29.8369 15.0661 27.1416 16.5235 24.2929C17.8144 22.2178 19.6777 21.046 22.1133 20.7773ZM22.043 21.621C23.7289 21.4918 25.2289 21.9488 26.543 22.9921C24.0851 23.6524 22.0109 24.9297 20.3203 26.8242C20.2757 26.7211 20.217 26.6273 20.1445 26.5429C21.523 25.1974 22.1558 23.5568 22.043 21.621ZM21.0586 21.7617C21.3042 23.2704 20.8707 24.5829 19.7578 25.6992C19.3383 24.8388 19.0453 23.9365 18.8789 22.9921C18.9212 22.8793 18.9915 22.7856 19.0899 22.7109C19.7053 22.2976 20.3615 21.9812 21.0586 21.7617ZM18.1055 23.5195C18.3304 24.4402 18.6351 25.3425 19.0195 26.2265C18.2721 26.7765 17.4284 27.0695 16.4883 27.1054C16.666 25.7425 17.2051 24.5472 18.1055 23.5195ZM27.1758 23.7304C27.3547 23.7985 27.507 23.9157 27.6328 24.082C28.1555 24.7518 28.4837 25.5019 28.6172 26.332C26.5159 25.5355 24.5588 25.8051 22.7461 27.1406C22.3069 27.5444 21.9084 27.9779 21.5508 28.4413C21.3171 28.1957 21.0944 27.9378 20.8828 27.6679C21.1559 27.1817 21.5192 26.7482 21.9727 26.3671C23.4887 25.0583 25.2231 24.1794 27.1758 23.7304ZM25.9805 26.6835C27.0089 26.6155 27.9582 26.8498 28.8281 27.3867C28.9711 29.1148 28.4672 30.6148 27.3164 31.8867C25.3453 31.4239 23.6343 30.4981 22.1836 29.1093C23.0769 27.7137 24.3426 26.9051 25.9805 26.6835ZM19.3711 27.0351C19.5344 27.1818 19.675 27.3576 19.793 27.5624C18.8745 28.8276 18.2183 30.2222 17.8242 31.746C16.899 30.6587 16.4302 29.393 16.418 27.9492C17.4987 27.9247 18.4831 27.62 19.3711 27.0351ZM20.2149 28.371C20.3464 28.3963 20.4519 28.4666 20.5313 28.582C20.744 28.8298 20.9432 29.0876 21.1289 29.3554C20.4746 30.8459 20.4746 32.3342 21.1289 33.8203C20.1059 33.6603 19.2387 33.2033 18.5274 32.4492C18.8603 30.9875 19.4228 29.6282 20.2149 28.371ZM21.7617 29.9179C23.1371 31.1392 24.7191 32.0065 26.5078 32.5195C26.5962 32.5441 26.6197 32.591 26.5781 32.6601C25.3004 33.6976 23.8355 34.1547 22.1836 34.0312C21.4333 32.727 21.2927 31.3559 21.7617 29.9179Z" fill="white"/>
<path opacity="0.879" fill-rule="evenodd" clip-rule="evenodd" d="M4.18359 21.5508C4.3549 21.5379 4.50724 21.5848 4.64062 21.6914C4.98836 22.5744 5.41023 23.4181 5.90625 24.2227C5.95942 24.8026 5.72505 24.9666 5.20312 24.7148C4.6559 23.8548 4.2223 22.9407 3.90234 21.9727C3.91426 21.774 4.00802 21.6333 4.18359 21.5508Z" fill="white"/>
<path opacity="0.883" fill-rule="evenodd" clip-rule="evenodd" d="M31.8867 21.5508C32.3318 21.4921 32.531 21.6796 32.4844 22.1133C32.1366 22.9962 31.7148 23.84 31.2188 24.6445C30.9844 24.9258 30.75 24.9258 30.5156 24.6445C30.4687 24.4805 30.4687 24.3164 30.5156 24.1523C31.0115 23.301 31.4685 22.4339 31.8867 21.5508Z" fill="white"/>
<path opacity="0.876" fill-rule="evenodd" clip-rule="evenodd" d="M7.06638 26.1914C7.2179 26.1824 7.35853 26.2176 7.48826 26.2969C8.13865 27.0062 8.84177 27.6508 9.59763 28.2305C9.68658 28.8083 9.45222 28.984 8.89451 28.7578C8.15707 28.161 7.46569 27.5165 6.82029 26.8243C6.72641 26.5354 6.80845 26.3245 7.06638 26.1914Z" fill="white"/>
<path opacity="0.88" fill-rule="evenodd" clip-rule="evenodd" d="M11.4258 29.4961C11.9131 29.6104 12.3818 29.7861 12.8321 30.0234C13.3666 30.225 13.9057 30.4125 14.4492 30.5859C14.6841 31.1416 14.4966 31.376 13.8867 31.2891C12.9858 31.02 12.1185 30.6684 11.2852 30.2344C11.0814 29.9367 11.1283 29.6906 11.4258 29.4961Z" fill="white"/>
</g>
<defs>
<clipPath id="clip0_156_725">
<rect width="36" height="36" fill="white"/>
</clipPath>
</defs>
</svg>
