<svg width="36" height="36" viewBox="0 0 36 36" fill="none" xmlns="http://www.w3.org/2000/svg">
<g clip-path="url(#clip0_156_762)">
<path d="M7.52344 13.3594C7.52344 19.175 12.2547 23.9063 18.0703 23.9063C23.886 23.9063 28.6172 19.175 28.6172 13.3594C28.6172 7.54377 23.886 2.8125 18.0703 2.8125C12.2547 2.8125 7.52344 7.54377 7.52344 13.3594ZM18.0703 4.21875C23.1106 4.21875 27.211 8.31913 27.211 13.3594C27.211 18.3997 23.1106 22.5 18.0703 22.5C13.0301 22.5 8.92969 18.3997 8.92969 13.3594C8.92969 8.31913 13.0301 4.21875 18.0703 4.21875Z" fill="white"/>
<path d="M11.5587 12.1058L14.2842 14.7912L13.6571 18.5653C13.6135 18.8281 13.722 19.0929 13.9376 19.2494C14.1529 19.406 14.4383 19.4271 14.6747 19.3046L18.0704 17.5413L21.4657 19.3046C21.7002 19.4263 21.9856 19.4074 22.2029 19.2494C22.4185 19.0929 22.527 18.8281 22.4833 18.5653L21.8562 14.7912L24.5817 12.1058C24.7715 11.9191 24.8393 11.6411 24.7569 11.3876C24.6745 11.1344 24.4562 10.9495 24.1928 10.9097L20.4104 10.3403L18.699 6.91782C18.5801 6.67969 18.3365 6.52917 18.0704 6.52917C17.8039 6.52917 17.5606 6.67969 17.4414 6.91782L15.73 10.3403L11.9477 10.9097C11.6843 10.9493 11.4659 11.1344 11.3835 11.3876C11.3011 11.6411 11.3692 11.9191 11.5587 12.1058ZM16.3005 11.6766C16.5268 11.6425 16.7223 11.5005 16.8248 11.2959L18.0704 8.80445L19.3159 11.2959C19.4184 11.5005 19.6139 11.6425 19.8403 11.6766L22.5932 12.091L20.6093 14.0452C20.4464 14.2059 20.3717 14.4358 20.4091 14.6615L20.8656 17.4084L18.3942 16.1252C18.2928 16.0725 18.1816 16.0461 18.0704 16.0461C17.9591 16.0461 17.8479 16.0725 17.7463 16.1252L15.2749 17.4084L15.7314 14.6615C15.769 14.4358 15.6943 14.2059 15.5311 14.0452L13.5475 12.091L16.3005 11.6766Z" fill="white"/>
<path d="M18.7734 0.703126C18.7734 1.09149 18.4587 1.40625 18.0703 1.40625C17.6819 1.40625 17.3672 1.09149 17.3672 0.703126C17.3672 0.314759 17.6819 0 18.0703 0C18.4587 0 18.7734 0.314759 18.7734 0.703126Z" fill="white"/>
<path d="M14.7566 0.414505C8.8418 1.9243 4.71094 7.24746 4.71094 13.3594C4.71094 17.1555 6.30698 20.7324 9.10877 23.2656L4.87271 30.731C4.73648 30.9714 4.75351 31.2691 4.91611 31.4921C5.07871 31.7154 5.35666 31.8228 5.6272 31.7665L10.4378 30.7676L12.1286 35.5321C12.2204 35.7914 12.4552 35.9729 12.7293 35.9974C13.0034 36.0218 13.2663 35.8836 13.4022 35.6444L18.0703 27.4376L22.7382 35.6444C22.864 35.8655 23.098 35.9998 23.349 35.9998C23.3696 35.9998 23.3905 35.999 23.4111 35.9974C23.6852 35.9729 23.92 35.7911 24.012 35.5321L25.7025 30.7676L30.5132 31.7665C30.7835 31.8225 31.0617 31.7152 31.2243 31.4921C31.3872 31.2691 31.4039 30.9714 31.2677 30.731L27.0316 23.2656C29.8334 20.7324 31.4295 17.1555 31.4295 13.3594C31.4295 7.24746 27.2986 1.9243 21.3841 0.414505C21.0075 0.318375 20.6249 0.545517 20.5288 0.9218C20.4327 1.29808 20.6598 1.68096 21.0361 1.77709C26.3277 3.12786 30.0235 7.89071 30.0235 13.3594C30.0235 20.0152 24.6179 25.3126 18.0703 25.3126C11.5181 25.3126 6.11719 20.0108 6.11719 13.3594C6.11719 7.89071 9.81272 3.12786 15.1043 1.77709C15.4806 1.68096 15.7077 1.29808 15.6119 0.9218C15.5157 0.545517 15.1331 0.318375 14.7566 0.414505ZM12.94 33.6133L11.5582 29.7195C11.4406 29.3882 11.0968 29.1946 10.7526 29.266L6.86261 30.0738L10.2151 24.1653C12.1698 25.5864 14.4844 26.4521 16.8912 26.6664L12.94 33.6133ZM25.3878 29.266C25.0439 29.1946 24.6998 29.3882 24.5822 29.7195L23.2007 33.6133L19.2492 26.6664C21.6563 26.4521 23.9706 25.5864 25.9256 24.1653L29.2781 30.0738L25.3878 29.266Z" fill="white"/>
</g>
<defs>
<clipPath id="clip0_156_762">
<rect width="36" height="36" fill="white"/>
</clipPath>
</defs>
</svg>
