<svg width="28" height="28" viewBox="0 0 28 28" fill="none" xmlns="http://www.w3.org/2000/svg">
<path opacity="0.943" fill-rule="evenodd" clip-rule="evenodd" d="M9.70721 0C9.85306 0 9.99886 0 10.1447 0C11.4368 0.762202 12.7311 1.52783 14.0275 2.29688C14.0444 2.34107 14.0717 2.37752 14.1096 2.40625C14.1369 3.04401 14.146 3.68203 14.1369 4.32031C18.1109 4.3112 22.0848 4.32031 26.0588 4.34766C26.1564 4.39056 26.2385 4.45436 26.3049 4.53906C26.3956 7.74288 26.4138 10.9512 26.3596 14.1641C26.3166 14.2617 26.2529 14.3438 26.1681 14.4102C24.874 14.4375 23.5797 14.4466 22.2853 14.4375C22.3093 15.1161 22.282 15.7906 22.2033 16.4609C20.8562 17.3167 19.4707 18.1005 18.0471 18.8125C17.8606 18.7878 17.6874 18.724 17.5275 18.6211C16.4609 17.9875 15.3854 17.3677 14.301 16.7617C14.1214 16.6764 13.9664 16.5579 13.8361 16.4062C13.8088 15.7503 13.7996 15.094 13.8088 14.4375C10.0353 14.4375 6.26189 14.4375 2.48846 14.4375C2.48846 17.2084 2.48846 19.9791 2.48846 22.75C3.54575 22.75 4.60304 22.75 5.66033 22.75C5.6512 22.13 5.66033 21.5101 5.68768 20.8906C5.71502 20.8359 5.74236 20.7812 5.76971 20.7266C6.98393 19.9956 8.20527 19.2755 9.43377 18.5664C9.71557 18.343 10.0072 18.3247 10.3088 18.5117C11.562 19.2431 12.8107 19.9814 14.0549 20.7266C14.1347 21.3956 14.1621 22.07 14.1369 22.75C18.1291 22.7409 22.1213 22.75 26.1135 22.7773C26.3888 22.9421 26.4526 23.17 26.3049 23.4609C26.2385 23.5456 26.1564 23.6094 26.0588 23.6523C22.0848 23.6797 18.1109 23.6888 14.1369 23.6797C14.146 24.3179 14.1369 24.956 14.1096 25.5938C14.0717 25.6225 14.0444 25.6589 14.0275 25.7031C12.7311 26.4722 11.4368 27.2378 10.1447 28C9.99886 28 9.85306 28 9.70721 28C8.37551 27.2383 7.05388 26.4544 5.74236 25.6484C5.66257 24.9977 5.63523 24.3415 5.66033 23.6797C4.40239 23.6888 3.14458 23.6797 1.88689 23.6523C1.75018 23.5885 1.64992 23.4883 1.58611 23.3516C1.53187 20.1387 1.5501 16.9304 1.6408 13.7266C1.68637 13.681 1.73195 13.6354 1.77752 13.5898C5.78792 13.5625 9.79832 13.5534 13.8088 13.5625C13.7996 12.906 13.8088 12.2497 13.8361 11.5938C15.1444 10.7525 16.4842 9.95958 17.8556 9.21484C18.0718 9.16497 18.2723 9.20145 18.4572 9.32422C19.7104 10.0556 20.9591 10.7939 22.2033 11.5391C22.282 12.2094 22.3093 12.8839 22.2853 13.5625C23.3426 13.5625 24.3999 13.5625 25.4572 13.5625C25.4572 10.7916 25.4572 8.02085 25.4572 5.25C21.6838 5.25 17.9103 5.25 14.1369 5.25C14.1621 5.92998 14.1347 6.60445 14.0549 7.27344C12.7108 8.11677 11.3345 8.90061 9.92596 9.625C9.75085 9.59224 9.58679 9.52842 9.43377 9.43359C8.20527 8.72446 6.98393 8.00439 5.76971 7.27344C5.74236 7.21875 5.71502 7.16406 5.68768 7.10938C5.66033 6.48987 5.6512 5.87005 5.66033 5.25C4.38416 5.25911 3.10812 5.25 1.83221 5.22266C1.55684 5.05787 1.49304 4.83001 1.6408 4.53906C1.70719 4.45436 1.78922 4.39056 1.88689 4.34766C3.14458 4.32031 4.40239 4.3112 5.66033 4.32031C5.63523 3.65854 5.66257 3.00229 5.74236 2.35156C7.05388 1.54561 8.37551 0.761759 9.70721 0ZM9.87127 0.984375C10.8251 1.50699 11.773 2.04475 12.715 2.59766C11.7807 3.16053 10.8419 3.71652 9.89861 4.26562C8.97352 3.72564 8.05297 3.17876 7.1369 2.625C8.04985 2.07751 8.96132 1.53063 9.87127 0.984375ZM6.59002 3.44531C7.52561 3.95882 8.4553 4.48746 9.37908 5.03125C9.45198 6.125 9.45198 7.21875 9.37908 8.3125C8.46761 7.78384 7.55618 7.25523 6.64471 6.72656C6.59002 5.63341 6.57181 4.53967 6.59002 3.44531ZM13.1525 3.44531C13.2161 4.52972 13.2252 5.62346 13.1799 6.72656C12.2548 7.24828 11.3343 7.77695 10.4181 8.3125C10.3544 7.23745 10.3452 6.16191 10.3908 5.08594C11.3193 4.54452 12.2399 3.99765 13.1525 3.44531ZM18.0197 10.1719C18.9569 10.7043 19.8866 11.2512 20.8088 11.8125C19.89 12.3723 18.9603 12.9192 18.0197 13.4531C17.09 12.9154 16.1603 12.3776 15.2306 11.8398C16.1638 11.2824 17.0935 10.7265 18.0197 10.1719ZM14.7385 12.6328C15.6802 13.1721 16.6191 13.719 17.5549 14.2734C17.5913 15.3672 17.5913 16.4609 17.5549 17.5547C16.6252 17.0078 15.6955 16.4609 14.7658 15.9141C14.7385 14.8205 14.7293 13.7267 14.7385 12.6328ZM21.301 12.6328C21.3645 13.7172 21.3736 14.811 21.3283 15.9141C20.4033 16.4358 19.4827 16.9644 18.5666 17.5C18.5028 16.425 18.4937 15.3494 18.5392 14.2734C19.4678 13.732 20.3884 13.1852 21.301 12.6328ZM9.81658 19.4141C10.8127 19.894 11.7788 20.4317 12.715 21.0273C11.8765 21.5195 11.0379 22.0117 10.1994 22.5039C10.0818 22.5909 9.95423 22.6273 9.81658 22.6133C8.90511 22.0846 7.99368 21.556 7.08221 21.0273C8.00615 20.5019 8.91757 19.9642 9.81658 19.4141ZM6.59002 21.8203C7.53179 22.3596 8.47061 22.9065 9.40643 23.4609C9.4429 24.5547 9.4429 25.6484 9.40643 26.7422C8.47674 26.1953 7.54705 25.6484 6.61736 25.1016C6.59002 24.008 6.58089 22.9142 6.59002 21.8203ZM13.0978 21.875C13.1707 22.4024 13.2072 22.9493 13.2072 23.5156C13.189 24.0625 13.1707 24.6094 13.1525 25.1562C12.2364 25.6918 11.3158 26.2205 10.3908 26.7422C10.3452 25.648 10.3544 24.5543 10.4181 23.4609C11.3238 22.9446 12.2171 22.416 13.0978 21.875Z" fill="#F55B1F"/>
</svg>
