<svg width="36" height="28" viewBox="0 0 36 28" fill="none" xmlns="http://www.w3.org/2000/svg">
<g clip-path="url(#clip0_237_49)">
<path opacity="0.931" fill-rule="evenodd" clip-rule="evenodd" d="M35.9648 6.16019C35.9648 6.62897 35.9648 7.09767 35.9648 7.56644C35.8158 8.16909 35.5345 8.70811 35.1211 9.18363C35.6112 10.4646 35.2362 11.3904 33.9961 11.961C33.4714 12.0131 32.9557 11.9896 32.4492 11.8907C29.4961 14.8438 26.543 17.7969 23.5898 20.75C23.241 20.8859 22.8894 21.0148 22.5352 21.1368C22.4649 21.9323 22.4415 22.7291 22.4648 23.5274C23.6604 23.5156 24.8557 23.5274 26.0508 23.5625C26.4048 23.7744 26.4869 24.0674 26.2969 24.4414C26.2334 24.5259 26.1514 24.5845 26.0508 24.6172C24.8557 24.6524 23.6604 24.6641 22.4648 24.6524C22.4766 25.637 22.4648 26.6214 22.4297 27.6055C21.98 28.0218 21.6285 27.9515 21.375 27.3946C21.3398 26.4808 21.3281 25.5667 21.3398 24.6524C20.8705 24.6641 20.4017 24.6524 19.9336 24.6172C19.6123 24.4386 19.5069 24.169 19.6172 23.8086C19.7025 23.6997 19.808 23.6177 19.9336 23.5625C20.4017 23.5274 20.8705 23.5157 21.3398 23.5274C21.3515 22.8707 21.3398 22.2144 21.3047 21.5586C20.362 21.9119 19.4128 22.2518 18.457 22.5782C18.0476 22.6486 17.6726 22.5666 17.332 22.3321C16.6642 22.7011 16.008 23.0878 15.3633 23.4922C16.3242 23.5156 17.2851 23.5391 18.2461 23.5625C18.6024 23.7723 18.6845 24.0652 18.4922 24.4414C18.4287 24.5259 18.3467 24.5845 18.2461 24.6172C13.8165 24.6524 9.38679 24.6641 4.95703 24.6524C4.96875 25.6136 4.95702 26.5745 4.92188 27.5352C4.70594 27.8726 4.41297 27.9546 4.04297 27.7813C3.9585 27.7178 3.8999 27.6358 3.86719 27.5352C3.83204 26.5745 3.82032 25.6136 3.83203 24.6524C2.65992 24.6641 1.48804 24.6524 0.316406 24.6172C0.188222 24.5471 0.0710346 24.4651 -0.0351562 24.3711C-0.0351562 24.1836 -0.0351562 23.9962 -0.0351562 23.8086C0.044998 23.7172 0.138748 23.6351 0.246094 23.5625C1.44117 23.5274 2.63649 23.5156 3.83203 23.5274C3.83203 17.1524 3.83203 10.7774 3.83203 4.40238C2.63649 4.41412 1.44117 4.40238 0.246094 4.36722C0.138748 4.29466 0.044998 4.21261 -0.0351562 4.12113C-0.0351562 3.93361 -0.0351562 3.74615 -0.0351562 3.55863C0.0710346 3.46469 0.188222 3.38264 0.316406 3.31254C1.48804 3.27738 2.65992 3.26564 3.83203 3.27738C3.82032 2.31616 3.83204 1.35522 3.86719 0.394567C4.08312 0.0571511 4.3761 -0.0248825 4.74609 0.148473C4.83057 0.21193 4.88917 0.293964 4.92188 0.394567C4.95702 1.35522 4.96875 2.31616 4.95703 3.27738C5.63712 3.26571 6.31681 3.27738 6.99609 3.31254C7.35012 3.52439 7.43217 3.81738 7.24219 4.19144C7.1787 4.27589 7.09671 4.33453 6.99609 4.36722C6.31681 4.40238 5.63712 4.41405 4.95703 4.40238C4.94532 5.57449 4.95704 6.74639 4.99219 7.918C6.99609 6.75785 9 5.59769 11.0039 4.43754C10.2305 4.41412 9.45703 4.39064 8.68359 4.36722C8.32957 4.15537 8.24752 3.86238 8.4375 3.48832C8.50099 3.40387 8.58298 3.34523 8.68359 3.31254C12.9023 3.27738 17.121 3.26564 21.3398 3.27738C21.3281 2.36301 21.3398 1.44895 21.375 0.535192C21.6285 -0.0217536 21.98 -0.0920661 22.4297 0.324254C22.4648 1.30835 22.4766 2.29272 22.4648 3.27738C23.6604 3.26564 24.8557 3.27738 26.0508 3.31254C26.4048 3.52439 26.4869 3.81738 26.2969 4.19144C26.2334 4.27589 26.1514 4.33453 26.0508 4.36722C24.8557 4.40238 23.6604 4.41412 22.4648 4.40238C22.4531 6.9806 22.4648 9.55875 22.5 12.1368C24.2109 10.4258 25.9219 8.71486 27.6328 7.00394C27.2014 5.83345 27.5178 4.93106 28.582 4.29691C29.1493 4.06312 29.7118 4.07479 30.2695 4.33207C31.6426 3.30993 33.0723 3.22788 34.5586 4.08597C35.2822 4.60839 35.751 5.29978 35.9648 6.16019ZM15.3633 4.47269C17.3434 4.40252 19.3356 4.37911 21.3398 4.40238C21.3516 5.57449 21.3398 6.74639 21.3047 7.918C19.3395 6.7421 17.3591 5.59368 15.3633 4.47269ZM32.2383 4.61332C34.0884 4.64693 34.9439 5.58447 34.8047 7.42582C34.7412 7.72851 34.6122 7.99809 34.418 8.23441C34.3711 8.28131 34.3242 8.28131 34.2773 8.23441C33.2461 7.20314 32.2149 6.17193 31.1836 5.14066C31.5032 4.88711 31.8547 4.71133 32.2383 4.61332ZM12.832 4.68363C13.1207 4.66493 13.4019 4.70008 13.6758 4.7891C16.0664 6.17193 18.457 7.5547 20.8477 8.93754C21.0559 9.09834 21.2083 9.29754 21.3047 9.53519C21.3516 10.8008 21.3516 12.0664 21.3047 13.3321C20.5781 14.0586 19.8515 14.7852 19.125 15.5118C19.1016 14.1055 19.0781 12.6993 19.0547 11.293C18.9028 10.719 18.5864 10.262 18.1055 9.92191C16.7461 9.14847 15.3867 8.37504 14.0273 7.6016C13.4421 7.37175 12.8561 7.37175 12.2695 7.6016C10.8982 8.41624 9.51539 9.21309 8.12109 9.99222C7.63973 10.3573 7.34674 10.8377 7.24219 11.4336C7.19529 13.1211 7.19529 14.8086 7.24219 16.4961C7.34674 17.092 7.63973 17.5725 8.12109 17.9375C9.55758 18.7883 11.0107 19.6086 12.4805 20.3985C13.1771 20.5913 13.8334 20.4975 14.4492 20.1172C15.5917 19.4581 16.7285 18.7901 17.8594 18.1133C17.5475 19.1665 17.2194 20.2211 16.875 21.2774C15.8028 21.8896 14.7364 22.5107 13.6758 23.1407C13.2296 23.3098 12.8077 23.2629 12.4102 23C10.1482 21.6698 7.87479 20.3573 5.58984 19.0625C5.28632 18.8998 5.0871 18.6537 4.99219 18.3243C4.94531 15.418 4.94531 12.5117 4.99219 9.6055C5.0253 9.48274 5.07218 9.36553 5.13281 9.25394C5.38255 9.02761 5.65208 8.82841 5.94141 8.65629C8.2542 7.34791 10.551 6.02372 12.832 4.68363ZM29.2148 5.24613C29.439 5.25443 29.6499 5.313 29.8477 5.42191C31.2656 6.8399 32.6836 8.25782 34.1016 9.67582C34.3261 10.5059 34.0097 10.8926 33.1523 10.836C33.0351 10.7657 32.918 10.6953 32.8008 10.625C31.4766 9.30084 30.1523 7.97657 28.8281 6.65238C28.4128 6.0304 28.5417 5.56162 29.2148 5.24613ZM28.3711 7.84769C28.7915 8.22119 29.19 8.61965 29.5664 9.043C29.0987 9.54588 28.6182 10.0381 28.125 10.5196C27.8036 11.2196 28.0262 11.536 28.793 11.4688C29.365 10.9671 29.9159 10.4398 30.4453 9.88675C30.8448 10.2745 31.2315 10.6729 31.6055 11.0821C29.0049 13.7178 26.3916 16.3428 23.7656 18.9571C23.5966 18.3427 23.2099 17.9325 22.6055 17.7266C24.1406 16.1915 25.6758 14.6563 27.2109 13.1211C27.5254 12.6029 27.3964 12.2748 26.8242 12.1368C26.6742 12.1378 26.5335 12.173 26.4023 12.2422C24.8662 13.7901 23.3194 15.3252 21.7617 16.8477C21.5374 16.2835 21.1389 15.8968 20.5664 15.6875C23.1821 13.0835 25.7837 10.4703 28.3711 7.84769ZM12.9727 8.55082C13.2476 8.53415 13.5054 8.59272 13.7461 8.7266C15.0761 9.50292 16.4003 10.288 17.7188 11.0821C17.8199 11.2069 17.8902 11.3475 17.9297 11.5039C17.998 13.2193 17.9745 14.9303 17.8594 16.6368C17.7539 16.8359 17.6015 16.9883 17.4023 17.0938C16.1836 17.7969 14.9648 18.5 13.7461 19.2032C13.2535 19.4495 12.7848 19.4026 12.3398 19.0625C11.1679 18.3828 9.99612 17.7032 8.82422 17.0235C8.58734 16.8572 8.43497 16.6345 8.36719 16.3555C8.32029 14.7617 8.32029 13.168 8.36719 11.5743C8.51337 11.1702 8.78288 10.8772 9.17578 10.6953C10.4366 9.95981 11.7022 9.24494 12.9727 8.55082ZM19.582 16.7774C20.3247 16.6198 20.6998 16.9127 20.707 17.6563C20.4775 18.6689 20.8643 19.0322 21.8672 18.7461C22.533 18.7882 22.8142 19.1398 22.7109 19.8008C22.1101 20.0873 21.489 20.3334 20.8477 20.5391C20.6213 20.6463 20.3869 20.6932 20.1445 20.6797C19.663 20.21 19.1943 19.7295 18.7383 19.2383C19.0481 18.4261 19.3293 17.6057 19.582 16.7774ZM4.95703 20.0118C6.98053 21.1559 8.99613 22.3161 11.0039 23.4922C8.9884 23.5274 6.97279 23.5391 4.95703 23.5274C4.95703 22.3555 4.95703 21.1837 4.95703 20.0118ZM18.2461 20.5039C18.5323 20.6839 18.79 20.9066 19.0195 21.1719C18.7214 21.3105 18.4167 21.4043 18.1055 21.4532C18.0662 21.4022 18.0427 21.3436 18.0352 21.2774C18.1202 21.0223 18.1905 20.7645 18.2461 20.5039Z" fill="#F55B1F"/>
</g>
<defs>
<clipPath id="clip0_237_49">
<rect width="36" height="28" fill="white"/>
</clipPath>
</defs>
</svg>
