<svg width="28" height="28" viewBox="0 0 28 28" fill="none" xmlns="http://www.w3.org/2000/svg">
<g clip-path="url(#clip0_237_38)">
<path opacity="0.928" fill-rule="evenodd" clip-rule="evenodd" d="M10.5273 -0.0273438C10.6732 -0.0273438 10.819 -0.0273438 10.9648 -0.0273438C11.8728 0.706841 12.7751 1.45424 13.6719 2.21484C13.7812 2.39713 13.7812 2.57943 13.6719 2.76172C12.9533 3.69879 12.1968 4.60113 11.4023 5.46875C10.9284 5.5597 10.7188 5.36832 10.7734 4.89453C11.2539 4.24986 11.7552 3.62095 12.2773 3.00781C7.72215 3.53569 4.41353 5.84166 2.35156 9.92578C1.60623 11.5948 1.22341 13.3448 1.20312 15.1758C1.02409 15.4622 0.777995 15.526 0.464844 15.3672C0.399141 15.3178 0.353568 15.254 0.328125 15.1758C0.391057 10.373 2.40538 6.64513 6.37109 3.99219C8.11322 2.90712 10.0091 2.2691 12.0586 2.07812C11.4844 1.61328 10.9102 1.14844 10.3359 0.683594C10.2066 0.388804 10.2704 0.151825 10.5273 -0.0273438Z" fill="#F55B1F"/>
<path opacity="0.929" fill-rule="evenodd" clip-rule="evenodd" d="M19.3866 3.69129C19.5852 3.67272 19.7674 3.71829 19.9335 3.82801C23.6987 6.2062 25.8042 9.62417 26.2499 14.0819C26.3933 16.2204 26.0378 18.2712 25.1835 20.2343C25.1926 20.2616 25.2017 20.2889 25.2108 20.3163C25.8442 20.0232 26.4914 19.768 27.1522 19.5507C27.5987 19.6047 27.7354 19.8418 27.5624 20.2616C27.5168 20.3072 27.4712 20.3528 27.4256 20.3983C26.391 20.8465 25.3519 21.284 24.3085 21.7108C24.0737 21.7766 23.8823 21.7127 23.7342 21.5194C23.2719 20.4307 22.8252 19.337 22.3944 18.2382C22.4763 17.8221 22.7133 17.6854 23.1053 17.828C23.2396 17.9597 23.3399 18.1146 23.4061 18.2929C23.6613 18.9126 23.9165 19.5325 24.1717 20.1522C25.4141 17.5379 25.6876 14.8218 24.9921 12.0038C24.0538 8.68552 22.1032 6.15168 19.1405 4.40223C19.0518 4.09722 19.1339 3.86024 19.3866 3.69129Z" fill="#F55B1F"/>
<path opacity="0.93" fill-rule="evenodd" clip-rule="evenodd" d="M11.4024 6.75394C11.7896 6.73677 12.1359 6.84615 12.4415 7.08207C13.0148 6.64698 13.589 6.64698 14.1641 7.08207C14.7972 6.60744 15.3806 6.66212 15.9141 7.24613C16.0917 7.57163 16.1464 7.91797 16.0782 8.28519C15.8027 8.95457 15.5201 9.6199 15.2305 10.2813C16.9743 11.2048 18.2959 12.5446 19.1954 14.3008C20.2849 16.8096 19.9568 19.1065 18.211 21.1914C16.1172 23.1891 13.6836 23.7451 10.9102 22.8594C7.79198 21.5183 6.45214 19.1576 6.89068 15.7774C7.4002 13.8002 8.48482 12.2234 10.1446 11.0469C10.5543 10.7915 10.9553 10.5272 11.3477 10.2539C10.9797 9.51402 10.688 8.7484 10.4727 7.95707C10.4997 7.32942 10.8096 6.9284 11.4024 6.75394ZM11.5665 7.68363C12.148 8.1208 12.7313 8.1208 13.3165 7.68363C13.6293 7.96708 13.9938 8.06732 14.4102 7.98441C14.6367 7.88871 14.8554 7.7976 15.0665 7.71098C15.1639 7.83364 15.1913 7.97036 15.1485 8.12113C14.8509 8.77104 14.5683 9.42729 14.3008 10.0899C13.9785 10.2214 13.6412 10.2761 13.2891 10.2539C12.9598 10.2688 12.6408 10.2232 12.3321 10.1172C12.0092 9.44408 11.7084 8.76048 11.4297 8.06644C11.3839 7.90342 11.4295 7.77584 11.5665 7.68363ZM12.004 11.0196C12.8518 11.2376 13.6995 11.2376 14.5469 11.0196C16.5696 12.003 17.955 13.5525 18.7032 15.668C19.2363 18.1894 18.425 20.1491 16.2696 21.5469C13.908 22.7593 11.6658 22.577 9.54302 21C7.51275 19.0207 7.15728 16.7694 8.47661 14.2461C9.35118 12.8335 10.527 11.758 12.004 11.0196Z" fill="#F55B1F"/>
<path opacity="0.928" fill-rule="evenodd" clip-rule="evenodd" d="M13.0976 12.8242C13.3172 12.7914 13.5086 12.846 13.6718 12.9882C13.7392 13.2738 13.7756 13.5654 13.7812 13.8632C14.5839 14.0189 15.067 14.4929 15.2304 15.2851C15.1776 15.6738 14.9588 15.8105 14.5741 15.6953C14.4959 15.6698 14.4321 15.6242 14.3827 15.5585C14.233 15.0169 13.8775 14.7617 13.3163 14.7929C12.8121 14.7597 12.5022 14.9876 12.3866 15.4765C12.4262 15.7015 12.5355 15.8838 12.7148 16.0234C13.3495 16.2505 13.9875 16.4692 14.6288 16.6796C15.359 17.2886 15.4957 18.0087 15.039 18.8398C14.71 19.2549 14.2817 19.4919 13.7538 19.5507C13.7629 19.8248 13.7538 20.0982 13.7265 20.371C13.4097 20.7488 13.118 20.7306 12.8515 20.3164C12.8421 20.0411 12.8148 19.7677 12.7694 19.496C12.082 19.2551 11.5989 18.7994 11.3202 18.1289C11.2509 17.5782 11.4788 17.3867 12.0038 17.5546C12.1776 17.8475 12.3782 18.1209 12.6054 18.375C13.0763 18.7178 13.5685 18.7543 14.0819 18.4843C14.4218 18.1722 14.44 17.844 14.1366 17.5C13.5324 17.3079 12.9309 17.1073 12.3319 16.8984C11.4752 16.3264 11.2655 15.5698 11.703 14.6289C11.9737 14.2335 12.3474 13.9966 12.8241 13.9179C12.8151 13.6439 12.8242 13.3704 12.8515 13.0976C12.9075 12.978 12.9896 12.8868 13.0976 12.8242Z" fill="#F55B1F"/>
<path opacity="0.933" fill-rule="evenodd" clip-rule="evenodd" d="M14.4648 27.9727C13.681 27.9727 12.8971 27.9727 12.1133 27.9727C8.24255 27.528 5.1345 25.7598 2.78906 22.668C2.65333 23.3515 2.54395 24.0442 2.46094 24.7461C2.20889 25.0871 1.93546 25.1053 1.64062 24.8008C1.59015 24.7169 1.5628 24.6257 1.55859 24.5273C1.69979 23.4525 1.83651 22.3769 1.96875 21.3008C1.99264 20.976 2.16582 20.812 2.48828 20.8086C3.56439 20.9408 4.63991 21.0775 5.71484 21.2188C6.1075 21.283 6.24422 21.5109 6.125 21.9023C6.09766 22.0026 6.03384 22.0664 5.93359 22.0938C5.10602 22.0883 4.28571 22.0063 3.47266 21.8477C3.41682 21.8751 3.4077 21.9115 3.44531 21.957C5.86348 25.2583 9.1356 26.9718 13.2617 27.0977C15.4328 27.0695 17.4563 26.5136 19.332 25.4297C19.89 25.3493 20.0996 25.5772 19.9609 26.1133C19.005 26.7323 17.975 27.1972 16.8711 27.5078C16.0714 27.7168 15.2694 27.8718 14.4648 27.9727Z" fill="#F55B1F"/>
</g>
<defs>
<clipPath id="clip0_237_38">
<rect width="28" height="28" fill="white"/>
</clipPath>
</defs>
</svg>
