<svg width="34" height="31" viewBox="0 0 34 31" fill="none" xmlns="http://www.w3.org/2000/svg">
<path opacity="0.934" fill-rule="evenodd" clip-rule="evenodd" d="M5.99618 0.849639C13.3088 0.839143 20.6213 0.849639 27.9337 0.881123C28.0902 0.958401 28.1957 1.07384 28.2501 1.22744C28.2618 4.62782 28.297 8.028 28.3556 11.428C28.5447 11.5449 28.697 11.6918 28.8126 11.8688C30.3313 14.2323 31.8314 16.604 33.3126 18.984C33.4928 19.6542 33.2935 20.2104 32.7149 20.6526C31.7775 21.1353 30.8399 21.618 29.9024 22.1008C28.9449 22.3922 28.1715 22.1718 27.5821 21.4397C27.196 21.602 26.821 21.7804 26.4571 21.9749C26.8965 22.9144 26.6621 23.691 25.754 24.3046C26.1945 25.2663 25.9367 26.0429 24.9806 26.6344C24.6434 26.7624 24.2918 26.8148 23.9259 26.7918C23.7985 27.8084 23.1657 28.3541 22.0274 28.4289C21.9444 29.4479 21.335 30.0146 20.1993 30.129C19.9837 30.1223 19.7727 30.0908 19.5665 30.0346C18.9539 29.755 18.3563 29.4507 17.7735 29.1216C17.129 30.1447 16.2033 30.4281 14.9962 29.9716C14.6798 29.7722 14.4103 29.5308 14.1876 29.2475C13.2707 29.5302 12.4973 29.3413 11.8673 28.6808C11.7271 28.5348 11.6452 28.367 11.6212 28.1771C10.1618 28.255 9.38841 27.6463 9.30087 26.351C8.22087 26.213 7.63495 25.6567 7.54306 24.6824C7.59481 24.2934 7.70027 23.9261 7.85946 23.5805C7.27355 22.9299 6.68756 22.2792 6.10165 21.6286C5.77998 22.0351 5.33467 22.245 4.76571 22.2582C4.51512 22.2218 4.26903 22.1693 4.02743 22.1008C3.08993 21.618 2.15243 21.1353 1.21493 20.6526C0.464149 19.9764 0.35868 19.2313 0.898525 18.4173C2.30478 16.2344 3.71102 14.0516 5.11727 11.8688C5.23285 11.6918 5.38519 11.5449 5.57431 11.428C5.6329 8.028 5.66805 4.62782 5.67977 1.22744C5.74863 1.07206 5.8541 0.946129 5.99618 0.849639ZM6.83993 1.92007C13.5899 1.92007 20.3399 1.92007 27.0899 1.92007C27.1133 4.98472 27.0899 8.04909 27.0196 11.1132C25.8783 11.5822 24.7768 12.1174 23.7149 12.7188C23.2318 13.1143 23.0444 13.5971 23.1524 14.167C22.386 14.3811 21.6008 14.4965 20.797 14.5134C19.6964 14.4535 18.6065 14.3171 17.5274 14.1041C16.6099 13.97 15.7428 14.0959 14.9259 14.4819C14.5619 14.7242 14.1986 14.9655 13.836 15.206C12.8373 14.8974 11.8412 14.5826 10.8477 14.2615C10.911 13.6662 10.7001 13.152 10.2149 12.7188C9.15307 12.1174 8.05156 11.5822 6.91024 11.1132C6.83993 8.04909 6.81652 4.98472 6.83993 1.92007ZM6.48837 12.1836C6.78938 12.2236 7.07063 12.3181 7.33212 12.4669C8.08805 12.8526 8.82633 13.2618 9.54696 13.6948C9.59182 13.7646 9.62698 13.838 9.65243 13.9152C8.21011 16.278 6.72181 18.6183 5.18759 20.9359C5.0719 21.0721 4.91955 21.156 4.73056 21.1878C3.70034 20.7325 2.72768 20.2078 1.81259 19.6136C1.76571 19.4667 1.76571 19.3198 1.81259 19.1729C3.21884 16.99 4.62509 14.8072 6.03134 12.6244C6.15045 12.4444 6.30281 12.2975 6.48837 12.1836ZM27.1602 12.1836C27.5079 12.19 27.754 12.3369 27.8985 12.6244C29.3048 14.8072 30.711 16.99 32.1173 19.1729C32.1801 19.388 32.1449 19.5874 32.0118 19.771C31.0857 20.2592 30.1482 20.7315 29.1993 21.1878C29.0103 21.156 28.8579 21.0721 28.7423 20.9359C27.2081 18.6183 25.7198 16.278 24.2774 13.9152C24.3184 13.7578 24.4122 13.6319 24.5587 13.5374C25.4303 13.0845 26.2975 12.6332 27.1602 12.1836ZM16.2618 15.143C16.6609 15.1326 17.0594 15.1431 17.4571 15.1745C19.5215 15.6084 21.584 15.6294 23.6446 15.2375C24.7837 16.9609 25.9087 18.6924 27.0196 20.4322C26.504 20.6841 25.9883 20.9359 25.4727 21.1878C23.1405 19.965 20.7968 18.7582 18.4415 17.5672C17.7012 17.3648 16.9746 17.4068 16.2618 17.6932C15.8549 17.8439 15.4564 18.0118 15.0665 18.1969C14.6943 18.79 14.331 19.3882 13.9766 19.9914C13.6491 20.3323 13.2389 20.5107 12.7462 20.5266C12.7004 20.2799 12.677 20.0281 12.6759 19.771C12.6901 19.0405 12.7486 18.3164 12.8516 17.5987C13.6471 16.8296 14.5026 16.1264 15.4181 15.4893C15.698 15.3532 15.9792 15.2378 16.2618 15.143ZM10.2149 15.2689C11.1148 15.4991 12.0054 15.7614 12.8868 16.056C12.4767 16.4233 12.0665 16.7907 11.6563 17.1579C11.5181 18.3515 11.4712 19.5478 11.5157 20.747C11.7071 21.2957 12.129 21.5895 12.7813 21.6286C13.7244 21.5843 14.4743 21.2275 15.0313 20.5581C15.3477 20.0334 15.6641 19.5087 15.9806 18.984C16.4902 18.7409 17.0293 18.573 17.5977 18.4802C17.8476 18.5152 18.082 18.5886 18.3009 18.7006C20.5159 19.8709 22.7425 21.0253 24.9806 22.1638C25.582 22.506 25.6288 22.9048 25.1212 23.3601C25.0157 23.3916 24.9102 23.4231 24.8048 23.4546C23.8865 23.0277 22.9842 22.5765 22.0977 22.1008C21.5355 22.0377 21.2659 22.2581 21.2892 22.762C21.368 22.8957 21.4735 23.0111 21.6056 23.1083C22.6015 23.6066 23.5858 24.1208 24.5587 24.6509C24.8455 24.9867 24.822 25.3121 24.4884 25.6269C24.2869 25.7187 24.0759 25.7396 23.8556 25.6899C22.8123 25.1283 21.7576 24.5826 20.6915 24.0528C20.1691 23.9188 19.8644 24.0868 19.7774 24.5565C19.8357 24.6708 19.8944 24.7863 19.9532 24.9028C20.8029 25.362 21.6584 25.8132 22.5196 26.2566C22.8939 26.7938 22.7415 27.161 22.0626 27.3585C21.0748 26.9155 20.1022 26.4433 19.1446 25.9418C18.5317 25.882 18.2856 26.1234 18.4063 26.6659C18.439 26.756 18.4977 26.8294 18.5821 26.8863C19.3577 27.2457 20.0959 27.6549 20.797 28.1141C20.9272 28.6159 20.7162 28.9307 20.1642 29.0586C19.5429 28.8171 18.9452 28.5338 18.3712 28.2085C18.6711 27.0881 18.2024 26.3536 16.9649 26.0047C17.3283 24.693 16.7658 23.9269 15.2774 23.7064C15.1756 22.6313 14.5194 22.0646 13.3087 22.0064C13.0056 21.9919 12.7243 22.0548 12.4649 22.1953C11.7108 21.3023 10.7734 21.1029 9.65243 21.5971C9.2842 21.9371 8.95613 22.3044 8.66806 22.699C8.02758 22.0252 7.39477 21.343 6.76962 20.6526C7.92858 18.8597 9.07706 17.0652 10.2149 15.2689ZM10.5665 22.3842C11.1064 22.4166 11.3994 22.6684 11.4454 23.1398C10.9482 23.8989 10.374 24.602 9.72274 25.2491C9.09985 25.3206 8.78344 25.0792 8.77352 24.525C9.26571 23.8744 9.7579 23.2237 10.2501 22.5731C10.3662 22.5164 10.4717 22.4535 10.5665 22.3842ZM13.0977 23.0768C13.755 23.0464 14.0714 23.3192 14.047 23.8953C13.2346 24.9831 12.3791 26.0431 11.4806 27.0752C11.0749 27.1613 10.7585 27.0458 10.5313 26.7288C10.4844 26.5819 10.4844 26.435 10.5313 26.2881C11.3477 25.1902 12.2031 24.1198 13.0977 23.0768ZM14.9259 24.7769C15.6012 24.7354 15.9176 25.0083 15.8751 25.5954C15.2423 26.414 14.6095 27.2326 13.9766 28.0511C13.4466 28.4336 13.0247 28.3496 12.711 27.7993C12.6882 27.67 12.7117 27.5441 12.7813 27.4215C13.4805 26.5246 14.1953 25.643 14.9259 24.7769ZM16.3321 27.0437C17.144 27.0525 17.4135 27.3884 17.1407 28.0511C16.9064 28.345 16.6719 28.6388 16.4376 28.9327C16.0718 29.1898 15.7202 29.1688 15.3829 28.8697C15.3047 28.7507 15.2461 28.6248 15.2071 28.4919C15.497 27.9501 15.872 27.4674 16.3321 27.0437Z" fill="#DF1119"/>
</svg>
