<svg width="36" height="36" viewBox="0 0 36 36" fill="none" xmlns="http://www.w3.org/2000/svg">
<path opacity="0.934" fill-rule="evenodd" clip-rule="evenodd" d="M27.2461 1.08989C30.2124 0.884316 32.1577 2.1851 33.082 4.99223C33.5742 5.01567 34.0664 5.03911 34.5586 5.06254C34.6875 5.0977 34.7695 5.17973 34.8047 5.30864C34.8621 5.55222 34.8386 5.78659 34.7344 6.01176C34.1371 6.8216 33.5161 7.60673 32.8711 8.36723C32.6078 8.43255 32.3618 8.3974 32.1328 8.26176C31.5469 7.46491 30.9609 6.66801 30.375 5.87114C30.3097 5.60788 30.3448 5.36179 30.4805 5.13286C30.9182 5.04492 31.3635 4.99805 31.8164 4.99223C30.8753 2.75208 29.2113 1.90833 26.8242 2.46098C24.6528 3.44068 23.8442 5.09303 24.3984 7.41801C25.3798 9.59032 27.0321 10.3989 29.3555 9.84379C29.8245 9.65515 30.2581 9.40905 30.6562 9.10551C30.9851 9.3289 31.2546 9.61015 31.4648 9.94926C30.1452 11.0937 28.6218 11.4804 26.8945 11.1094C24.4723 10.3796 23.1597 8.75072 22.957 6.2227C23.1422 3.46023 24.572 1.74929 27.2461 1.08989ZM32.168 6.29301C32.4359 6.21248 32.7172 6.20077 33.0117 6.25786C32.8823 6.4455 32.7417 6.62128 32.5898 6.7852C32.4476 6.61977 32.307 6.4557 32.168 6.29301Z" fill="#DF1119"/>
<path opacity="0.964" fill-rule="evenodd" clip-rule="evenodd" d="M27.5273 3.33984C27.9023 3.33984 28.2774 3.33984 28.6523 3.33984C28.6641 4.55882 28.6523 5.77757 28.6172 6.99609C28.0288 7.4778 27.4077 7.92309 26.7539 8.33203C26.4947 8.03707 26.2602 7.72066 26.0508 7.38281C26.5312 7.04299 27.0117 6.70312 27.4922 6.36328C27.5273 5.35574 27.5391 4.34793 27.5273 3.33984Z" fill="#DF1119"/>
<path fill-rule="evenodd" clip-rule="evenodd" d="M11.2148 7.83984C11.5898 7.83984 11.9649 7.83984 12.3398 7.83984C12.3398 8.58987 12.3398 9.33982 12.3398 10.0898C11.9649 10.0898 11.5898 10.0898 11.2148 10.0898C11.2148 9.33982 11.2148 8.58987 11.2148 7.83984Z" fill="#DF1119"/>
<path opacity="0.872" fill-rule="evenodd" clip-rule="evenodd" d="M3.76172 10.8633C4.36582 11.35 4.92832 11.8891 5.44922 12.4805C5.1914 12.7851 4.91015 13.0664 4.60547 13.3242C4.04297 12.8086 3.5039 12.2695 2.98828 11.707C3.24764 11.4244 3.50545 11.1431 3.76172 10.8633Z" fill="#DF1119"/>
<path opacity="0.872" fill-rule="evenodd" clip-rule="evenodd" d="M19.6523 10.8633C19.9982 11.0917 20.3029 11.3729 20.5664 11.707C20.0508 12.2695 19.5117 12.8086 18.9492 13.3242C18.6446 13.0664 18.3633 12.7851 18.1055 12.4805C18.6226 11.94 19.1382 11.4009 19.6523 10.8633Z" fill="#DF1119"/>
<path opacity="0.956" fill-rule="evenodd" clip-rule="evenodd" d="M11.707 13.3945C13.8637 13.4939 15.3285 14.5486 16.1016 16.5586C16.552 18.1972 16.2473 19.6738 15.1875 20.9883C14.8446 21.3079 14.4813 21.6009 14.0977 21.8672C15.1327 21.8719 16.164 21.9188 17.1914 22.0078C17.8879 22.227 18.4035 22.6606 18.7383 23.3086C18.4381 23.5231 18.1217 23.7106 17.7891 23.8711C17.5698 23.7224 17.3706 23.5466 17.1914 23.3438C16.9087 23.1792 16.604 23.0854 16.2773 23.0625C13.2773 23.0156 10.2774 23.0156 7.27734 23.0625C6.28242 23.1668 5.73164 23.7176 5.625 24.7148C5.58984 28.0898 5.57812 31.4648 5.58984 34.8398C5.21485 34.8398 4.83984 34.8398 4.46484 34.8398C4.45312 31.2538 4.46484 27.6679 4.5 24.082C4.79297 22.9453 5.50781 22.2305 6.64453 21.9375C7.58201 21.9141 8.51956 21.8906 9.45703 21.8672C7.53996 20.5691 6.872 18.7996 7.45313 16.5586C8.20406 14.5998 9.62206 13.5451 11.707 13.3945ZM11.707 14.5898C13.4661 14.7202 14.5794 15.6343 15.0469 17.332C15.244 19.3644 14.3651 20.6652 12.4102 21.2344C10.389 21.4156 9.08817 20.5367 8.50781 18.5977C8.29174 17.1201 8.79567 15.96 10.0195 15.1172C10.5578 14.8321 11.1203 14.6564 11.707 14.5898Z" fill="#DF1119"/>
<path fill-rule="evenodd" clip-rule="evenodd" d="M1.08984 19.0898C1.83985 19.0898 2.58984 19.0898 3.33984 19.0898C3.33984 19.4648 3.33984 19.8399 3.33984 20.2148C2.58984 20.2148 1.83985 20.2148 1.08984 20.2148C1.08984 19.8399 1.08984 19.4648 1.08984 19.0898Z" fill="#DF1119"/>
<path fill-rule="evenodd" clip-rule="evenodd" d="M20.2148 19.0898C20.9649 19.0898 21.7148 19.0898 22.4648 19.0898C22.4648 19.4648 22.4648 19.8399 22.4648 20.2148C21.7148 20.2148 20.9649 20.2148 20.2148 20.2148C20.2148 19.8399 20.2148 19.4648 20.2148 19.0898Z" fill="#DF1119"/>
<path opacity="0.932" fill-rule="evenodd" clip-rule="evenodd" d="M17.6835 24.715C20.2874 24.487 22.1507 25.5417 23.2734 27.879C24.0836 30.4404 23.4156 32.5146 21.2695 34.1017C18.7535 35.4043 16.5152 35.041 14.5546 33.0118C13.4017 31.4417 13.144 29.7308 13.7812 27.879C14.5415 26.1468 15.8423 25.0921 17.6835 24.715ZM18.457 25.84C19.9752 25.9182 21.1353 26.5979 21.9374 27.879C22.8805 30.073 22.3765 31.8425 20.4257 33.1876C18.2318 34.1306 16.4622 33.6267 15.1171 31.6759C14.2254 29.677 14.6121 27.9779 16.2773 26.5782C16.9493 26.1472 17.6758 25.9011 18.457 25.84Z" fill="#DF1119"/>
<path fill-rule="evenodd" clip-rule="evenodd" d="M7.27734 25.8398C7.65232 25.8398 8.02737 25.8398 8.40234 25.8398C8.40234 28.8399 8.40234 31.8398 8.40234 34.8398C8.02737 34.8398 7.65232 34.8398 7.27734 34.8398C7.27734 31.8398 7.27734 28.8399 7.27734 25.8398Z" fill="#DF1119"/>
<path opacity="0.913" fill-rule="evenodd" clip-rule="evenodd" d="M19.6523 27.8086C20.0107 27.9084 20.3388 28.0724 20.6367 28.3008C20.715 28.3868 20.7268 28.4805 20.6719 28.582C19.9746 29.6718 19.2949 30.7734 18.6328 31.8867C18.4345 32.1794 18.1649 32.2849 17.8242 32.2031C17.2726 31.8218 16.7336 31.4234 16.207 31.0078C16.4263 30.6713 16.6724 30.3549 16.9453 30.0586C17.27 30.266 17.5748 30.5004 17.8594 30.7617C18.4763 29.7851 19.074 28.8008 19.6523 27.8086Z" fill="#DF1119"/>
</svg>
