<svg width="36" height="36" viewBox="0 0 36 36" fill="none" xmlns="http://www.w3.org/2000/svg">
<g clip-path="url(#clip0_201_11543)">
<path opacity="0.9" fill-rule="evenodd" clip-rule="evenodd" d="M28.2304 1.01943C31.5968 0.902911 33.9992 2.35603 35.4374 5.3788C36.2678 7.792 35.9866 10.0655 34.5936 12.1991C32.9423 14.2488 30.7978 15.1511 28.16 14.9061C24.5475 14.3404 22.4966 12.2427 22.0077 8.61318C21.8363 5.78017 22.9262 3.58876 25.2772 2.03896C26.2002 1.49311 27.1846 1.15327 28.2304 1.01943ZM28.4413 1.86318C31.2169 1.77915 33.2442 2.95102 34.5233 5.3788C35.7391 8.64503 34.9305 11.2817 32.0975 13.289C29.5663 14.618 27.1757 14.4071 24.9257 12.6561C22.6354 10.3874 22.2018 7.79762 23.6249 4.88661C24.7426 3.10307 26.3481 2.09526 28.4413 1.86318Z" fill="#DF1119"/>
<path opacity="0.889" fill-rule="evenodd" clip-rule="evenodd" d="M16.7695 1.30078C17.1997 1.44428 17.2934 1.7138 17.0508 2.10938C16.0525 2.24059 15.0682 2.4398 14.0976 2.70703C13.7045 2.62612 13.5756 2.39175 13.7109 2.00391C13.7461 1.96875 13.7812 1.93359 13.8164 1.89844C14.7936 1.61481 15.778 1.41559 16.7695 1.30078Z" fill="#DF1119"/>
<path opacity="0.889" fill-rule="evenodd" clip-rule="evenodd" d="M19.4414 1.30078C20.4154 1.40062 21.3763 1.5764 22.3243 1.82812C22.7124 2.03014 22.7593 2.28795 22.4649 2.60156C22.3711 2.61328 22.2774 2.625 22.1836 2.63672C21.2314 2.4155 20.2704 2.23972 19.3008 2.10938C18.9971 1.76716 19.044 1.49764 19.4414 1.30078Z" fill="#DF1119"/>
<path opacity="0.912" fill-rule="evenodd" clip-rule="evenodd" d="M-0.0351562 12.4805C-0.0351562 12.3867 -0.0351562 12.2929 -0.0351562 12.1992C0.406875 9.21059 0.840466 6.21058 1.26562 3.19922C1.40254 2.91398 1.6252 2.80851 1.93359 2.88281C2.44825 3.14293 2.87013 3.02574 3.19922 2.53125C4.78254 2.71328 6.23566 3.25235 7.55859 4.14844C8.118 4.17331 8.66876 4.25535 9.21094 4.39453C10.6781 3.99521 12.1664 3.86629 13.6758 4.00781C13.8626 4.21588 14.0501 4.42682 14.2383 4.64062C14.6054 4.72727 14.9804 4.77414 15.3633 4.78125C15.5088 4.8841 15.6026 5.02473 15.6445 5.20312C15.2044 8.26024 14.7708 11.3188 14.3438 14.3789C14.2852 14.5313 14.1797 14.6367 14.0273 14.6953C11.9784 14.9155 9.9277 15.1147 7.875 15.293C7.32157 15.2608 6.77081 15.2022 6.22266 15.1172C4.27024 14.3871 2.32493 13.6371 0.386719 12.8672C0.186318 12.7954 0.0456935 12.6665 -0.0351562 12.4805ZM7.13672 4.88672C5.89447 4.46477 4.67573 3.98431 3.48047 3.44531C3.51562 3.41016 3.55078 3.375 3.58594 3.33984C4.86396 3.65701 6.04755 4.17264 7.13672 4.88672ZM2.00391 3.83203C3.68831 4.45203 5.35236 5.11999 6.99609 5.83594C6.6057 8.59205 6.19555 11.346 5.76562 14.0977C4.14844 13.4414 2.53125 12.7851 0.914062 12.1289C1.25397 9.36295 1.61725 6.5973 2.00391 3.83203ZM12.0586 4.74609C12.4598 4.72298 12.8582 4.74642 13.2539 4.81641C13.1675 4.87133 13.0738 4.90648 12.9727 4.92188C11.8257 5.0577 10.6772 5.15145 9.52734 5.20312C10.369 4.98097 11.2127 4.82862 12.0586 4.74609ZM7.48828 5.09766C7.59621 5.0071 7.71335 5.0071 7.83984 5.09766C7.74232 5.11926 7.62511 5.11926 7.48828 5.09766ZM8.68359 5.23828C8.70012 5.19633 8.73527 5.17288 8.78906 5.16797C9.009 5.21745 9.23161 5.2526 9.45703 5.27344C9.1954 5.32112 8.93756 5.3094 8.68359 5.23828ZM14.2383 5.58984C14.4023 5.58984 14.5664 5.58984 14.7305 5.58984C14.3489 8.3546 13.9739 11.1202 13.6055 13.8867C11.8242 14.0859 10.043 14.2617 8.26172 14.4141C8.66313 11.6626 9.06159 8.90866 9.45703 6.15234C11.0592 5.95479 12.6529 5.76729 14.2383 5.58984ZM2.70703 5.73047C3.72123 6.10851 4.72905 6.50695 5.73047 6.92578C5.7539 7.00781 5.77735 7.08982 5.80078 7.17188C5.73736 7.55712 5.69049 7.94384 5.66016 8.33203C4.64659 7.96676 3.63878 7.58004 2.63672 7.17188C2.59476 7.0972 2.57131 7.01519 2.56641 6.92578C2.6397 6.52997 2.68658 6.13153 2.70703 5.73047ZM7.76953 5.94141C8.04502 6.00761 8.32627 6.05448 8.61328 6.08203C8.2267 8.84672 7.83998 11.6123 7.45312 14.3789C7.42402 14.411 7.38886 14.4345 7.34766 14.4492C7.16421 14.3979 6.97669 14.3627 6.78516 14.3438C6.70933 14.2964 6.66245 14.226 6.64453 14.1328C7.03976 11.4045 7.41473 8.6741 7.76953 5.94141ZM13.3242 7.20703C13.3945 7.20703 13.4648 7.20703 13.5352 7.20703C13.4964 7.70217 13.4027 8.18262 13.2539 8.64844C12.1757 8.75862 11.0976 8.86409 10.0195 8.96484C10.0898 8.49607 10.1602 8.02737 10.2305 7.55859C11.2735 7.4591 12.3048 7.34189 13.3242 7.20703Z" fill="#DF1119"/>
<path opacity="0.86" fill-rule="evenodd" clip-rule="evenodd" d="M28.7227 2.49605C28.9697 2.45216 29.1689 2.52247 29.3203 2.70699C29.3672 3.05855 29.3672 3.41011 29.3203 3.76168C29.0339 4.05126 28.7761 4.02782 28.5469 3.69136C28.5 3.38668 28.5 3.08199 28.5469 2.7773C28.5934 2.67297 28.6521 2.57922 28.7227 2.49605Z" fill="#DF1119"/>
<path opacity="0.891" fill-rule="evenodd" clip-rule="evenodd" d="M27.0352 3.41012C27.2193 3.39125 27.3951 3.41469 27.5625 3.48043C28.1056 4.73476 28.6213 6.00039 29.1094 7.27731C29.6685 7.57395 29.7739 7.98409 29.4258 8.50777C29.2531 8.6176 29.0655 8.68792 28.8633 8.71871C28.2283 9.33015 27.619 9.96296 27.0352 10.6171C26.529 10.8033 26.3063 10.6276 26.3672 10.0898C26.9744 9.4122 27.6073 8.75598 28.2657 8.12106C28.2823 7.96187 28.3174 7.8095 28.3711 7.66402C27.842 6.38175 27.3264 5.09269 26.8243 3.79684C26.8681 3.65023 26.9384 3.52132 27.0352 3.41012Z" fill="#DF1119"/>
<path opacity="0.904" fill-rule="evenodd" clip-rule="evenodd" d="M2.14453 4.7462C2.31024 4.73472 2.47431 4.74644 2.63672 4.78136C3.98426 5.28549 5.30848 5.83627 6.60938 6.4337C6.67089 6.53026 6.70605 6.63573 6.71484 6.75011C6.60283 7.46392 6.49736 8.17872 6.39844 8.89464C6.31298 9.32995 6.06689 9.45883 5.66016 9.28136C4.34692 8.78123 3.04613 8.25388 1.75781 7.69933C1.6963 7.60279 1.66114 7.49732 1.65234 7.38292C1.7578 6.64476 1.86327 5.90648 1.96875 5.16808C1.98534 5.00557 2.04394 4.86494 2.14453 4.7462ZM2.70703 5.73058C2.68658 6.13164 2.6397 6.53008 2.56641 6.92589C2.57131 7.0153 2.59476 7.09731 2.63672 7.17199C3.63878 7.58015 4.64659 7.96687 5.66016 8.33214C5.69049 7.94395 5.73736 7.55723 5.80078 7.17199C5.77735 7.08993 5.7539 7.00793 5.73047 6.92589C4.72905 6.50706 3.72123 6.10862 2.70703 5.73058Z" fill="#DF1119"/>
<path opacity="0.913" fill-rule="evenodd" clip-rule="evenodd" d="M13.3945 6.36323C13.6768 6.3516 13.958 6.36332 14.2383 6.39839C14.2969 6.45698 14.3555 6.51558 14.4141 6.57417C14.3603 7.37285 14.2665 8.16977 14.1328 8.9648C14.1214 9.1178 14.0628 9.24668 13.957 9.35152C12.4965 9.54333 11.0316 9.71911 9.5625 9.87886C9.38679 9.83787 9.24616 9.74414 9.14062 9.59761C9.20095 8.82326 9.29468 8.04982 9.42188 7.2773C9.42841 7.10102 9.48698 6.94865 9.59766 6.82027C10.8738 6.67177 12.1394 6.51942 13.3945 6.36323ZM13.3242 7.20698C12.3048 7.34184 11.2735 7.45906 10.2305 7.55855C10.1602 8.02732 10.0898 8.49602 10.0195 8.9648C11.0976 8.86404 12.1757 8.75857 13.2539 8.64839C13.4027 8.18257 13.4964 7.70213 13.5352 7.20698C13.4648 7.20698 13.3945 7.20698 13.3242 7.20698Z" fill="#DF1119"/>
<path opacity="0.858" fill-rule="evenodd" clip-rule="evenodd" d="M23.7305 7.55851C24.089 7.53566 24.4406 7.57081 24.7852 7.66398C24.9909 7.92385 24.9674 8.1582 24.7149 8.3671C24.3399 8.414 23.9649 8.414 23.5899 8.3671C23.3729 8.04514 23.4198 7.77563 23.7305 7.55851Z" fill="#DF1119"/>
<path opacity="0.851" fill-rule="evenodd" clip-rule="evenodd" d="M33.293 7.55851C33.6516 7.53566 34.0031 7.57081 34.3477 7.66398C34.5424 7.9176 34.519 8.15195 34.2774 8.3671C33.9024 8.414 33.5274 8.414 33.1524 8.3671C32.8653 8.04381 32.9122 7.7743 33.293 7.55851Z" fill="#DF1119"/>
<path opacity="0.856" fill-rule="evenodd" clip-rule="evenodd" d="M28.7227 12.0587C28.8884 12.0472 29.0524 12.0589 29.2149 12.0939C29.2589 12.1466 29.294 12.2052 29.3203 12.2696C29.3672 12.6212 29.3672 12.9728 29.3203 13.3243C29.0339 13.6139 28.7761 13.5905 28.5469 13.254C28.5 12.9493 28.5 12.6446 28.5469 12.3399C28.5934 12.2356 28.6521 12.1419 28.7227 12.0587Z" fill="#DF1119"/>
<path opacity="0.896" fill-rule="evenodd" clip-rule="evenodd" d="M32.8008 16.1368C33.4574 16.0443 33.6917 16.3255 33.5039 16.9806C33.4905 17.8773 33.3733 18.7562 33.1523 19.6173C32.6886 19.8313 32.4542 19.6907 32.4492 19.1954C32.5801 18.2505 32.6621 17.3013 32.6953 16.3477C32.7314 16.2755 32.7665 16.2052 32.8008 16.1368Z" fill="#DF1119"/>
<path opacity="0.896" fill-rule="evenodd" clip-rule="evenodd" d="M3.05861 16.2069C3.56367 16.1249 3.78633 16.3358 3.72658 16.8397C3.74207 17.6552 3.82411 18.4638 3.97267 19.2655C3.92661 19.7185 3.69223 19.8591 3.26955 19.6874C3.12541 19.3658 3.04338 19.0259 3.02345 18.6679C2.92137 17.897 2.89793 17.1235 2.95314 16.3476C3.00357 16.3093 3.03872 16.2624 3.05861 16.2069Z" fill="#DF1119"/>
<path opacity="0.906" fill-rule="evenodd" clip-rule="evenodd" d="M22.1132 20.7774C25.784 20.7652 28.2332 22.4761 29.4609 25.9102C30.1974 29.5334 28.9904 32.2873 25.8398 34.1719C22.5454 35.5717 19.6744 34.9741 17.2265 32.379C15.3004 29.837 15.066 27.1417 16.5234 24.293C17.8143 22.2179 19.6776 21.0461 22.1132 20.7774ZM22.0429 21.6212C23.7289 21.4919 25.2289 21.949 26.5429 22.9923C24.0851 23.6526 22.0109 24.9299 20.3203 26.8243C20.2756 26.7212 20.217 26.6274 20.1445 26.543C21.523 25.1975 22.1558 23.5569 22.0429 21.6212ZM21.0585 21.7618C21.3041 23.2705 20.8706 24.583 19.7578 25.6993C19.3382 24.8389 19.0452 23.9366 18.8789 22.9923C18.9211 22.8794 18.9914 22.7857 19.0898 22.711C19.7052 22.2977 20.3615 21.9813 21.0585 21.7618ZM18.1054 23.5196C18.3304 24.4403 18.635 25.3427 19.0195 26.2266C18.2721 26.7766 17.4283 27.0696 16.4882 27.1055C16.666 25.7426 17.2051 24.5473 18.1054 23.5196ZM27.1757 23.7305C27.3546 23.7986 27.507 23.9158 27.6328 24.0821C28.1555 24.752 28.4836 25.502 28.6171 26.3321C26.5159 25.5357 24.5588 25.8052 22.746 27.1407C22.3068 27.5445 21.9083 27.978 21.5507 28.4415C21.317 28.1958 21.0943 27.938 20.8828 27.668C21.1558 27.1818 21.5191 26.7483 21.9726 26.3673C23.4886 25.0585 25.223 24.1795 27.1757 23.7305ZM25.9804 26.6837C27.0089 26.6156 27.9581 26.8499 28.8281 27.3868C28.971 29.1149 28.4672 30.6149 27.3164 31.8868C25.3452 31.4241 23.6342 30.4983 22.1835 29.1094C23.0769 27.7138 24.3425 26.9052 25.9804 26.6837ZM19.371 27.0352C19.5343 27.1819 19.6749 27.3577 19.7929 27.5626C18.8744 28.8278 18.2182 30.2223 17.8242 31.7462C16.8989 30.6588 16.4302 29.3932 16.4179 27.9493C17.4986 27.9248 18.483 27.6201 19.371 27.0352ZM20.2148 28.3712C20.3464 28.3964 20.4518 28.4667 20.5312 28.5821C20.7439 28.8299 20.9431 29.0877 21.1289 29.3555C20.4745 30.846 20.4745 32.3343 21.1289 33.8204C20.1058 33.6604 19.2386 33.2034 18.5273 32.4493C18.8602 30.9876 19.4227 29.6283 20.2148 28.3712ZM21.7617 29.918C23.1371 31.1394 24.7191 32.0066 26.5078 32.5196C26.5961 32.5442 26.6196 32.5911 26.5781 32.6602C25.3004 33.6978 23.8355 34.1548 22.1835 34.0313C21.4332 32.7271 21.2926 31.356 21.7617 29.918Z" fill="#DF1119"/>
<path opacity="0.879" fill-rule="evenodd" clip-rule="evenodd" d="M4.18359 21.5507C4.3549 21.5378 4.50724 21.5847 4.64062 21.6913C4.98836 22.5743 5.41023 23.418 5.90625 24.2225C5.95942 24.8025 5.72505 24.9665 5.20312 24.7147C4.6559 23.8547 4.2223 22.9406 3.90234 21.9725C3.91426 21.7738 4.00802 21.6332 4.18359 21.5507Z" fill="#DF1119"/>
<path opacity="0.883" fill-rule="evenodd" clip-rule="evenodd" d="M31.8867 21.5508C32.3318 21.4921 32.531 21.6796 32.4844 22.1133C32.1366 22.9962 31.7148 23.84 31.2188 24.6445C30.9844 24.9258 30.75 24.9258 30.5156 24.6445C30.4687 24.4805 30.4687 24.3164 30.5156 24.1523C31.0115 23.301 31.4685 22.4339 31.8867 21.5508Z" fill="#DF1119"/>
<path opacity="0.876" fill-rule="evenodd" clip-rule="evenodd" d="M7.06638 26.1913C7.2179 26.1823 7.35853 26.2175 7.48826 26.2968C8.13865 27.0061 8.84177 27.6507 9.59763 28.2304C9.68658 28.8081 9.45222 28.9839 8.89451 28.7577C8.15707 28.1608 7.46569 27.5164 6.82029 26.8241C6.72641 26.5353 6.80845 26.3243 7.06638 26.1913Z" fill="#DF1119"/>
<path opacity="0.88" fill-rule="evenodd" clip-rule="evenodd" d="M11.4257 29.4961C11.9131 29.6104 12.3818 29.7861 12.832 30.0234C13.3666 30.225 13.9056 30.4125 14.4492 30.5859C14.684 31.1416 14.4965 31.376 13.8867 31.2891C12.9857 31.02 12.1185 30.6684 11.2851 30.2344C11.0814 29.9367 11.1283 29.6906 11.4257 29.4961Z" fill="#DF1119"/>
</g>
<defs>
<clipPath id="clip0_201_11543">
<rect width="36" height="36" fill="white"/>
</clipPath>
</defs>
</svg>
