<svg width="28" height="36" viewBox="0 0 28 36" fill="none" xmlns="http://www.w3.org/2000/svg">
<path d="M3.52344 13.3594C3.52344 19.175 8.25471 23.9063 14.0703 23.9063C19.886 23.9063 24.6172 19.175 24.6172 13.3594C24.6172 7.54377 19.886 2.8125 14.0703 2.8125C8.25471 2.8125 3.52344 7.54377 3.52344 13.3594ZM14.0703 4.21875C19.1106 4.21875 23.211 8.31913 23.211 13.3594C23.211 18.3997 19.1106 22.5 14.0703 22.5C9.03007 22.5 4.92969 18.3997 4.92969 13.3594C4.92969 8.31913 9.03007 4.21875 14.0703 4.21875Z" fill="#DF1119"/>
<path d="M7.55881 12.106L10.2842 14.7913L9.6572 18.5654C9.61353 18.8282 9.72202 19.093 9.93762 19.2496C10.153 19.4061 10.4383 19.4273 10.6748 19.3048L14.0704 17.5415L17.4657 19.3048C17.7003 19.4264 17.9857 19.4075 18.2029 19.2496C18.4185 19.093 18.527 18.8282 18.4834 18.5654L17.8563 14.7913L20.5817 12.106C20.7715 11.9192 20.8394 11.6412 20.757 11.3877C20.6746 11.1345 20.4562 10.9497 20.1928 10.9098L16.4105 10.3405L14.6991 6.91794C14.5802 6.67981 14.3366 6.5293 14.0704 6.5293C13.804 6.5293 13.5606 6.67981 13.4414 6.91794L11.73 10.3405L7.94772 10.9098C7.68433 10.9494 7.46597 11.1345 7.38357 11.3877C7.30118 11.6412 7.36929 11.9192 7.55881 12.106ZM12.3005 11.6767C12.5268 11.6426 12.7224 11.5006 12.8248 11.296L14.0704 8.80457L15.316 11.296C15.4184 11.5006 15.614 11.6426 15.8403 11.6767L18.5932 12.0911L16.6094 14.0453C16.4465 14.206 16.3718 14.4359 16.4091 14.6617L16.8656 17.4085L14.3942 16.1253C14.2929 16.0726 14.1816 16.0462 14.0704 16.0462C13.9592 16.0462 13.8479 16.0726 13.7463 16.1253L11.2749 17.4085L11.7314 14.6617C11.769 14.4359 11.6943 14.206 11.5312 14.0453L9.54761 12.0911L12.3005 11.6767Z" fill="#DF1119"/>
<path d="M14.7734 0.703126C14.7734 1.09149 14.4587 1.40625 14.0703 1.40625C13.6819 1.40625 13.3672 1.09149 13.3672 0.703126C13.3672 0.314759 13.6819 0 14.0703 0C14.4587 0 14.7734 0.314759 14.7734 0.703126Z" fill="#DF1119"/>
<path d="M10.7566 0.414383C4.8418 1.92418 0.710938 7.24734 0.710938 13.3593C0.710938 17.1554 2.30698 20.7323 5.10877 23.2654L0.872711 30.7309C0.736481 30.9713 0.75351 31.269 0.916108 31.492C1.07871 31.7153 1.35666 31.8227 1.6272 31.7664L6.43784 30.7675L8.12864 35.532C8.22038 35.7912 8.45521 35.9728 8.72932 35.9972C9.00343 36.0217 9.26628 35.8835 9.40224 35.6443L14.0703 27.4375L18.7382 35.6443C18.864 35.8654 19.098 35.9997 19.349 35.9997C19.3696 35.9997 19.3905 35.9989 19.4111 35.9972C19.6852 35.9728 19.92 35.791 20.012 35.532L21.7025 30.7675L26.5132 31.7664C26.7835 31.8224 27.0617 31.715 27.2243 31.492C27.3872 31.269 27.4039 30.9713 27.2677 30.7309L23.0316 23.2654C25.8334 20.7323 27.4295 17.1554 27.4295 13.3593C27.4295 7.24734 23.2986 1.92418 17.3841 0.414383C17.0075 0.318253 16.6249 0.545395 16.5288 0.921678C16.4327 1.29796 16.6598 1.68083 17.0361 1.77696C22.3277 3.12774 26.0235 7.89059 26.0235 13.3593C26.0235 20.0151 20.6179 25.3125 14.0703 25.3125C7.51808 25.3125 2.11719 20.0107 2.11719 13.3593C2.11719 7.89059 5.81272 3.12774 11.1043 1.77696C11.4806 1.68083 11.7077 1.29796 11.6119 0.921678C11.5157 0.545395 11.1331 0.318253 10.7566 0.414383ZM8.93999 33.6132L7.55818 29.7194C7.44062 29.3881 7.09675 29.1945 6.7526 29.2659L2.86261 30.0737L6.2151 24.1652C8.16984 25.5863 10.4844 26.452 12.8912 26.6663L8.93999 33.6132ZM21.3878 29.2659C21.0439 29.1945 20.6998 29.3881 20.5822 29.7194L19.2007 33.6132L15.2492 26.6663C17.6563 26.452 19.9706 25.5863 21.9256 24.1652L25.2781 30.0737L21.3878 29.2659Z" fill="#DF1119"/>
</svg>
