<?xml version="1.0" encoding="UTF-8"?>
<svg xmlns="http://www.w3.org/2000/svg" xmlns:xlink="http://www.w3.org/1999/xlink" width="169px" height="65px" viewBox="0 0 169 65" version="1.1">
<g id="surface1">
<path style=" stroke:none;fill-rule:nonzero;fill:rgb(99.607843%,99.607843%,99.607843%);fill-opacity:1;" d="M 0 0 C 55.769531 0 111.539062 0 169 0 C 169 21.449219 169 42.898438 169 65 C 113.230469 65 57.460938 65 0 65 C 0 43.550781 0 22.101562 0 0 Z M 0 0 "/>
<path style=" stroke:none;fill-rule:nonzero;fill:rgb(78.823531%,0%,0%);fill-opacity:1;" d="M 63.503906 12.351562 C 64.015625 12.34375 64.527344 12.339844 65.039062 12.335938 C 65.214844 12.332031 65.390625 12.332031 65.5625 12.328125 C 65.816406 12.324219 66.066406 12.324219 66.316406 12.324219 C 66.433594 12.320312 66.433594 12.320312 66.550781 12.320312 C 67.164062 12.316406 67.742188 12.425781 68.257812 12.773438 C 68.332031 12.847656 68.332031 12.847656 68.402344 12.925781 C 68.453125 12.972656 68.503906 13.023438 68.554688 13.074219 C 69.066406 13.824219 69.007812 14.625 69 15.496094 C 69 15.636719 69 15.78125 68.996094 15.921875 C 68.996094 16.296875 68.996094 16.667969 68.992188 17.042969 C 68.988281 17.425781 68.988281 17.804688 68.984375 18.1875 C 68.984375 18.933594 68.976562 19.679688 68.972656 20.429688 C 69.023438 20.40625 69.074219 20.378906 69.125 20.355469 C 69.355469 20.246094 69.585938 20.132812 69.816406 20.023438 C 69.894531 19.988281 69.976562 19.949219 70.058594 19.910156 C 70.640625 19.628906 71.21875 19.382812 71.847656 19.222656 C 71.953125 19.195312 72.058594 19.167969 72.167969 19.136719 C 74.101562 18.695312 76.179688 18.800781 78.058594 19.40625 C 78.125 19.429688 78.191406 19.449219 78.257812 19.46875 C 79.679688 19.925781 80.929688 20.644531 82.042969 21.636719 C 82.121094 21.699219 82.195312 21.761719 82.277344 21.828125 C 84.429688 23.65625 85.722656 26.460938 85.960938 29.253906 C 86.117188 32.269531 85.199219 35.359375 83.25 37.699219 C 83.183594 37.777344 83.121094 37.855469 83.054688 37.933594 C 81.34375 39.90625 79.023438 41.21875 76.386719 41.414062 C 74.976562 41.484375 73.589844 41.492188 72.214844 41.136719 C 72.105469 41.113281 71.996094 41.089844 71.882812 41.0625 C 69.976562 40.625 68.332031 39.601562 66.933594 38.257812 C 66.855469 38.1875 66.777344 38.113281 66.699219 38.039062 C 64.992188 36.410156 64.050781 34.226562 63.59375 31.941406 C 63.578125 31.863281 63.5625 31.78125 63.546875 31.695312 C 63.496094 31.328125 63.488281 30.96875 63.492188 30.597656 C 63.492188 30.480469 63.492188 30.480469 63.492188 30.359375 C 63.492188 30.097656 63.492188 29.835938 63.492188 29.574219 C 63.492188 29.386719 63.492188 29.199219 63.492188 29.011719 C 63.492188 28.503906 63.492188 27.996094 63.492188 27.484375 C 63.492188 26.953125 63.492188 26.421875 63.492188 25.890625 C 63.492188 24.882812 63.496094 23.875 63.496094 22.867188 C 63.496094 21.71875 63.496094 20.574219 63.496094 19.425781 C 63.5 17.066406 63.5 14.707031 63.503906 12.351562 Z M 63.503906 12.351562 "/>
<path style=" stroke:none;fill-rule:nonzero;fill:rgb(78.823531%,0.392157%,0.392157%);fill-opacity:1;" d="M 112.359375 12.441406 C 112.910156 12.433594 113.464844 12.425781 114.019531 12.421875 C 114.207031 12.421875 114.398438 12.417969 114.585938 12.414062 C 114.855469 12.410156 115.128906 12.410156 115.398438 12.40625 C 115.484375 12.40625 115.566406 12.402344 115.652344 12.402344 C 116.296875 12.402344 116.78125 12.550781 117.273438 12.976562 C 117.335938 13.054688 117.335938 13.054688 117.398438 13.132812 C 117.441406 13.183594 117.484375 13.238281 117.527344 13.289062 C 117.804688 13.714844 117.851562 14.074219 117.847656 14.578125 C 117.847656 14.640625 117.847656 14.703125 117.847656 14.769531 C 117.847656 14.980469 117.847656 15.1875 117.84375 15.394531 C 117.84375 15.539062 117.84375 15.6875 117.84375 15.832031 C 117.84375 16.210938 117.84375 16.59375 117.839844 16.972656 C 117.839844 17.363281 117.835938 17.75 117.835938 18.140625 C 117.835938 18.902344 117.832031 19.664062 117.828125 20.429688 C 117.917969 20.382812 118.003906 20.339844 118.097656 20.292969 C 118.214844 20.234375 118.332031 20.175781 118.449219 20.113281 C 118.507812 20.085938 118.566406 20.054688 118.628906 20.023438 C 121.234375 18.714844 124.289062 18.566406 127.070312 19.425781 C 129.195312 20.191406 131.117188 21.484375 132.472656 23.308594 C 132.535156 23.386719 132.597656 23.464844 132.664062 23.546875 C 134.363281 25.753906 135.089844 28.703125 134.761719 31.453125 C 134.304688 34.480469 132.804688 37.617188 130.308594 39.476562 C 130.132812 39.597656 129.960938 39.71875 129.785156 39.835938 C 129.675781 39.910156 129.675781 39.910156 129.566406 39.988281 C 127.371094 41.40625 124.257812 41.804688 121.730469 41.296875 C 121.511719 41.246094 121.292969 41.191406 121.070312 41.136719 C 120.960938 41.113281 120.851562 41.089844 120.734375 41.0625 C 118.832031 40.625 117.1875 39.601562 115.789062 38.257812 C 115.710938 38.183594 115.632812 38.109375 115.550781 38.03125 C 115.476562 37.953125 115.402344 37.875 115.324219 37.792969 C 115.261719 37.730469 115.199219 37.667969 115.136719 37.601562 C 114.574219 37.003906 114.148438 36.371094 113.75 35.65625 C 113.664062 35.507812 113.664062 35.507812 113.578125 35.351562 C 113.25 34.738281 113.003906 34.125 112.792969 33.464844 C 112.757812 33.359375 112.757812 33.359375 112.722656 33.253906 C 112.355469 32.039062 112.332031 30.859375 112.335938 29.605469 C 112.335938 29.417969 112.335938 29.230469 112.335938 29.042969 C 112.335938 28.535156 112.335938 28.027344 112.339844 27.523438 C 112.339844 26.992188 112.339844 26.460938 112.339844 25.929688 C 112.339844 24.925781 112.34375 23.921875 112.34375 22.921875 C 112.347656 21.777344 112.347656 20.632812 112.347656 19.492188 C 112.351562 17.140625 112.355469 14.792969 112.359375 12.441406 Z M 112.359375 12.441406 "/>
<path style=" stroke:none;fill-rule:nonzero;fill:rgb(78.823531%,0.392157%,0.392157%);fill-opacity:1;" d="M 106.007812 21.15625 C 106.085938 21.222656 106.160156 21.289062 106.238281 21.355469 C 106.371094 21.46875 106.371094 21.46875 106.507812 21.585938 C 108.496094 23.3125 109.988281 25.945312 110.226562 28.601562 C 110.238281 29.015625 110.238281 29.433594 110.234375 29.851562 C 110.234375 29.976562 110.234375 30.101562 110.234375 30.230469 C 110.234375 30.570312 110.234375 30.910156 110.234375 31.253906 C 110.234375 31.609375 110.234375 31.96875 110.234375 32.324219 C 110.234375 33 110.234375 33.679688 110.230469 34.355469 C 110.230469 35.125 110.230469 35.894531 110.230469 36.664062 C 110.230469 38.246094 110.226562 39.832031 110.226562 41.414062 C 109.738281 41.421875 109.25 41.429688 108.761719 41.433594 C 108.59375 41.4375 108.429688 41.4375 108.265625 41.441406 C 108.023438 41.445312 107.785156 41.449219 107.546875 41.449219 C 107.4375 41.453125 107.4375 41.453125 107.324219 41.457031 C 106.699219 41.457031 106.238281 41.265625 105.75 40.875 C 105.699219 40.816406 105.648438 40.757812 105.597656 40.699219 C 105.542969 40.644531 105.492188 40.589844 105.4375 40.53125 C 105.253906 40.191406 105.242188 39.847656 105.21875 39.464844 C 105.148438 39.503906 105.148438 39.503906 105.074219 39.542969 C 102.355469 41.003906 99.304688 41.835938 96.226562 40.972656 C 96.101562 40.9375 95.980469 40.898438 95.855469 40.855469 C 95.792969 40.835938 95.730469 40.816406 95.664062 40.796875 C 92.820312 39.871094 90.371094 37.875 88.996094 35.191406 C 88.753906 34.675781 88.550781 34.148438 88.347656 33.613281 C 88.316406 33.539062 88.285156 33.460938 88.253906 33.382812 C 87.269531 30.746094 87.710938 27.671875 88.816406 25.160156 C 90.066406 22.46875 92.445312 20.378906 95.210938 19.359375 C 98.796875 18.097656 103.0625 18.667969 106.007812 21.15625 Z M 106.007812 21.15625 "/>
<path style=" stroke:none;fill-rule:nonzero;fill:rgb(78.823531%,0.392157%,0.392157%);fill-opacity:1;" d="M 45.703125 21.636719 C 47.660156 23.394531 49.09375 25.945312 49.320312 28.601562 C 49.332031 29.019531 49.332031 29.441406 49.328125 29.859375 C 49.328125 29.988281 49.328125 30.113281 49.328125 30.238281 C 49.328125 30.582031 49.328125 30.921875 49.328125 31.261719 C 49.328125 31.621094 49.328125 31.976562 49.328125 32.335938 C 49.328125 33.011719 49.328125 33.683594 49.324219 34.359375 C 49.324219 35.128906 49.324219 35.898438 49.324219 36.667969 C 49.324219 38.25 49.320312 39.832031 49.320312 41.414062 C 48.832031 41.421875 48.34375 41.429688 47.855469 41.433594 C 47.6875 41.4375 47.523438 41.4375 47.355469 41.441406 C 47.117188 41.445312 46.878906 41.449219 46.640625 41.449219 C 46.527344 41.453125 46.527344 41.453125 46.417969 41.457031 C 45.808594 41.457031 45.332031 41.28125 44.867188 40.878906 C 44.492188 40.410156 44.300781 40.078125 44.3125 39.464844 C 44.207031 39.523438 44.105469 39.582031 43.996094 39.644531 C 42.046875 40.726562 40.21875 41.234375 37.996094 41.25 C 37.832031 41.253906 37.832031 41.253906 37.664062 41.253906 C 36.667969 41.25 35.730469 41.125 34.789062 40.800781 C 34.71875 40.773438 34.648438 40.75 34.574219 40.726562 C 31.507812 39.644531 29.222656 37.492188 27.828125 34.582031 C 26.601562 31.910156 26.550781 28.804688 27.546875 26.058594 C 28.710938 23.042969 30.976562 20.824219 33.898438 19.515625 C 37.902344 17.820312 42.480469 18.839844 45.703125 21.636719 Z M 45.703125 21.636719 "/>
<path style=" stroke:none;fill-rule:nonzero;fill:rgb(78.823531%,1.176471%,1.176471%);fill-opacity:1;" d="M 59.027344 18.65625 C 59.113281 18.65625 59.113281 18.65625 59.207031 18.65625 C 59.425781 18.65625 59.648438 18.65625 59.871094 18.660156 C 60.363281 18.660156 60.859375 18.664062 61.371094 18.664062 C 61.371094 20.441406 61.371094 22.21875 61.371094 24.050781 C 60.910156 24.082031 60.453125 24.109375 59.980469 24.144531 C 58.941406 24.496094 57.984375 25.027344 57.457031 26.03125 C 57.058594 26.941406 57.09375 27.902344 57.09375 28.878906 C 57.09375 29.058594 57.089844 29.242188 57.089844 29.421875 C 57.089844 29.613281 57.089844 29.804688 57.089844 29.996094 C 57.089844 30.398438 57.089844 30.800781 57.085938 31.203125 C 57.085938 31.339844 57.085938 31.476562 57.085938 31.617188 C 57.085938 31.683594 57.085938 31.753906 57.082031 31.824219 C 57.078125 32.757812 57.078125 33.691406 57.074219 34.625 C 57.074219 35.257812 57.074219 35.890625 57.070312 36.523438 C 57.066406 36.855469 57.066406 37.1875 57.066406 37.523438 C 57.066406 37.894531 57.066406 38.265625 57.0625 38.640625 C 57.0625 38.804688 57.0625 38.804688 57.0625 38.96875 C 57.054688 39.675781 56.976562 40.308594 56.480469 40.847656 C 55.894531 41.390625 55.367188 41.441406 54.59375 41.433594 C 54.457031 41.433594 54.457031 41.433594 54.320312 41.429688 C 54.035156 41.429688 53.746094 41.429688 53.460938 41.425781 C 53.265625 41.425781 53.074219 41.425781 52.878906 41.421875 C 52.402344 41.421875 51.925781 41.417969 51.449219 41.414062 C 51.445312 39.417969 51.441406 37.425781 51.4375 35.429688 C 51.433594 34.503906 51.433594 33.578125 51.429688 32.652344 C 51.425781 31.84375 51.425781 31.035156 51.425781 30.226562 C 51.425781 29.800781 51.421875 29.375 51.421875 28.945312 C 51.417969 28.542969 51.417969 28.140625 51.417969 27.734375 C 51.417969 27.589844 51.417969 27.441406 51.417969 27.296875 C 51.402344 24.964844 51.976562 22.761719 53.609375 21.039062 C 54.808594 19.828125 56.203125 19.121094 57.847656 18.757812 C 57.914062 18.742188 57.984375 18.722656 58.054688 18.707031 C 58.378906 18.652344 58.695312 18.652344 59.027344 18.65625 Z M 59.027344 18.65625 "/>
<path style=" stroke:none;fill-rule:nonzero;fill:rgb(99.607843%,99.215686%,99.215686%);fill-opacity:1;" d="M 102.996094 25.257812 C 104.0625 26.179688 104.867188 27.453125 105.035156 28.878906 C 105.132812 30.980469 104.824219 32.632812 103.441406 34.277344 C 102.625 35.15625 101.371094 35.871094 100.15625 35.953125 C 97.738281 36 97.738281 36 96.785156 35.5625 C 96.703125 35.53125 96.625 35.5 96.542969 35.464844 C 95.195312 34.863281 94.085938 33.679688 93.539062 32.3125 C 92.972656 30.703125 93.003906 29.007812 93.679688 27.4375 C 94.246094 26.320312 94.980469 25.460938 96.042969 24.792969 C 96.113281 24.746094 96.1875 24.699219 96.261719 24.652344 C 98.265625 23.519531 101.230469 23.851562 102.996094 25.257812 Z M 102.996094 25.257812 "/>
<path style=" stroke:none;fill-rule:nonzero;fill:rgb(99.607843%,99.215686%,99.215686%);fill-opacity:1;" d="M 78.335938 25.179688 C 78.863281 25.636719 79.273438 26.148438 79.632812 26.742188 C 79.695312 26.847656 79.695312 26.847656 79.761719 26.957031 C 80.585938 28.449219 80.675781 30.238281 80.296875 31.875 C 79.84375 33.339844 79 34.558594 77.664062 35.34375 C 76.769531 35.792969 75.839844 36.066406 74.835938 36.050781 C 74.761719 36.050781 74.691406 36.050781 74.613281 36.050781 C 72.910156 36.019531 71.601562 35.453125 70.34375 34.292969 C 69.082031 32.96875 68.636719 31.292969 68.671875 29.515625 C 68.726562 28.113281 69.160156 26.863281 70.136719 25.832031 C 72.417969 23.761719 75.78125 23.324219 78.335938 25.179688 Z M 78.335938 25.179688 "/>
<path style=" stroke:none;fill-rule:nonzero;fill:rgb(99.607843%,99.607843%,99.607843%);fill-opacity:1;" d="M 41.996094 25.164062 C 43.167969 26.207031 44.035156 27.4375 44.144531 29.046875 C 44.152344 29.332031 44.152344 29.617188 44.152344 29.898438 C 44.152344 30.042969 44.152344 30.042969 44.152344 30.1875 C 44.148438 31.835938 43.546875 33.222656 42.429688 34.425781 C 41.074219 35.714844 39.457031 35.988281 37.664062 35.957031 C 36.125 35.902344 34.824219 35.160156 33.746094 34.078125 C 32.75 32.933594 32.335938 31.664062 32.332031 30.179688 C 32.328125 30.078125 32.328125 29.980469 32.324219 29.875 C 32.316406 28.335938 32.824219 26.945312 33.90625 25.832031 C 33.976562 25.765625 34.042969 25.695312 34.113281 25.628906 C 34.171875 25.570312 34.230469 25.511719 34.289062 25.449219 C 36.230469 23.570312 39.910156 23.46875 41.996094 25.164062 Z M 41.996094 25.164062 "/>
<path style=" stroke:none;fill-rule:nonzero;fill:rgb(99.607843%,99.215686%,99.215686%);fill-opacity:1;" d="M 127.261719 25.273438 C 128.339844 26.203125 129.136719 27.5625 129.253906 28.996094 C 129.265625 29.316406 129.261719 29.636719 129.257812 29.957031 C 129.257812 30.066406 129.257812 30.175781 129.257812 30.285156 C 129.25 31.910156 128.738281 33.289062 127.632812 34.492188 C 126.371094 35.714844 124.839844 36.054688 123.140625 36.058594 C 121.570312 36.035156 120.316406 35.359375 119.21875 34.265625 C 119.160156 34.207031 119.097656 34.148438 119.039062 34.089844 C 117.902344 32.90625 117.496094 31.265625 117.519531 29.671875 C 117.535156 29.085938 117.570312 28.515625 117.734375 27.949219 C 117.765625 27.835938 117.765625 27.835938 117.800781 27.722656 C 118.292969 26.292969 119.453125 25.273438 120.746094 24.578125 C 122.832031 23.570312 125.449219 23.875 127.261719 25.273438 Z M 127.261719 25.273438 "/>
<path style=" stroke:none;fill-rule:nonzero;fill:rgb(78.823531%,0.392157%,0.392157%);fill-opacity:1;" d="M 139.28125 20.203125 C 139.382812 20.199219 139.484375 20.199219 139.589844 20.195312 C 140.359375 20.195312 140.84375 20.324219 141.445312 20.828125 C 141.898438 21.375 142.078125 21.78125 142.070312 22.492188 C 142.070312 22.601562 142.070312 22.601562 142.074219 22.71875 C 142.074219 22.964844 142.074219 23.210938 142.074219 23.460938 C 142.074219 23.636719 142.074219 23.816406 142.074219 23.992188 C 142.078125 24.476562 142.078125 24.960938 142.074219 25.441406 C 142.074219 25.84375 142.074219 26.25 142.078125 26.652344 C 142.078125 27.605469 142.078125 28.554688 142.078125 29.507812 C 142.074219 30.488281 142.078125 31.46875 142.078125 32.449219 C 142.082031 33.292969 142.082031 34.136719 142.082031 34.980469 C 142.082031 35.484375 142.082031 35.988281 142.082031 36.488281 C 142.085938 36.960938 142.085938 37.4375 142.082031 37.910156 C 142.082031 38.082031 142.082031 38.257812 142.082031 38.429688 C 142.09375 40.160156 142.09375 40.160156 141.558594 40.765625 C 140.90625 41.347656 140.300781 41.445312 139.445312 41.441406 C 139.3125 41.445312 139.3125 41.445312 139.175781 41.449219 C 138.402344 41.449219 137.746094 41.308594 137.175781 40.753906 C 136.429688 39.9375 136.488281 38.96875 136.496094 37.929688 C 136.496094 37.753906 136.496094 37.582031 136.496094 37.40625 C 136.492188 36.9375 136.496094 36.46875 136.496094 36 C 136.5 35.507812 136.5 35.015625 136.5 34.523438 C 136.5 33.695312 136.5 32.871094 136.503906 32.042969 C 136.507812 31.089844 136.507812 30.132812 136.507812 29.179688 C 136.507812 28.261719 136.507812 27.339844 136.507812 26.421875 C 136.511719 26.03125 136.511719 25.640625 136.511719 25.25 C 136.511719 24.789062 136.511719 24.328125 136.511719 23.867188 C 136.515625 23.699219 136.515625 23.53125 136.515625 23.363281 C 136.515625 23.132812 136.515625 22.902344 136.515625 22.671875 C 136.515625 22.605469 136.515625 22.539062 136.515625 22.46875 C 136.523438 21.914062 136.652344 21.421875 136.976562 20.964844 C 137.027344 20.917969 137.082031 20.867188 137.132812 20.816406 C 137.183594 20.765625 137.234375 20.714844 137.285156 20.664062 C 137.921875 20.199219 138.515625 20.199219 139.28125 20.203125 Z M 139.28125 20.203125 "/>
<path style=" stroke:none;fill-rule:nonzero;fill:rgb(1.176471%,1.176471%,1.176471%);fill-opacity:1;" d="M 140.644531 12.699219 C 141.277344 13.121094 141.65625 13.546875 141.890625 14.285156 C 142.039062 15.046875 142.019531 15.808594 141.628906 16.484375 C 141.375 16.847656 141.09375 17.179688 140.800781 17.515625 C 140.441406 17.9375 140.121094 18.390625 139.800781 18.84375 C 139.753906 18.902344 139.710938 18.964844 139.664062 19.027344 C 139.625 19.082031 139.585938 19.140625 139.546875 19.195312 C 139.425781 19.3125 139.425781 19.3125 139.148438 19.3125 C 138.960938 19.105469 138.960938 19.105469 138.742188 18.808594 C 138.660156 18.699219 138.578125 18.589844 138.496094 18.476562 C 138.453125 18.417969 138.410156 18.359375 138.363281 18.296875 C 138.214844 18.097656 138.0625 17.902344 137.90625 17.703125 C 137.851562 17.636719 137.800781 17.570312 137.746094 17.5 C 137.640625 17.367188 137.535156 17.234375 137.429688 17.101562 C 136.839844 16.34375 136.574219 15.683594 136.605469 14.710938 C 136.71875 13.824219 137.234375 13.230469 137.914062 12.691406 C 138.652344 12.222656 139.894531 12.289062 140.644531 12.699219 Z M 140.644531 12.699219 "/>
<path style=" stroke:none;fill-rule:nonzero;fill:rgb(2.745098%,2.745098%,2.745098%);fill-opacity:1;" d="M 57.917969 46.765625 C 58.378906 47.253906 58.617188 47.796875 58.648438 48.472656 C 58.617188 49.121094 58.40625 49.648438 57.964844 50.132812 C 57.417969 50.628906 56.914062 50.746094 56.179688 50.734375 C 55.617188 50.664062 55.273438 50.347656 54.882812 49.957031 C 54.851562 50.691406 54.820312 51.429688 54.789062 52.1875 C 54.574219 52.1875 54.359375 52.1875 54.140625 52.1875 C 54.140625 50.253906 54.140625 48.324219 54.140625 46.335938 C 54.351562 46.335938 54.566406 46.335938 54.789062 46.335938 C 54.820312 46.550781 54.847656 46.765625 54.882812 46.984375 C 54.921875 46.949219 54.964844 46.910156 55.007812 46.871094 C 55.988281 45.996094 56.832031 46.125 57.917969 46.765625 Z M 57.917969 46.765625 "/>
<path style=" stroke:none;fill-rule:nonzero;fill:rgb(3.921569%,3.921569%,3.921569%);fill-opacity:1;" d="M 89.558594 46.507812 C 90.101562 46.828125 90.464844 47.214844 90.664062 47.820312 C 90.722656 48.558594 90.769531 49.261719 90.292969 49.863281 C 89.832031 50.378906 89.320312 50.652344 88.636719 50.730469 C 88.027344 50.753906 87.539062 50.707031 87.050781 50.328125 C 86.546875 49.859375 86.257812 49.4375 86.183594 48.734375 C 86.175781 48 86.222656 47.472656 86.730469 46.917969 C 87.554688 46.160156 88.558594 46 89.558594 46.507812 Z M 89.558594 46.507812 "/>
<path style=" stroke:none;fill-rule:nonzero;fill:rgb(3.921569%,3.921569%,3.921569%);fill-opacity:1;" d="M 63.507812 46.507812 C 64.050781 46.828125 64.414062 47.214844 64.613281 47.820312 C 64.671875 48.558594 64.71875 49.261719 64.242188 49.863281 C 63.78125 50.378906 63.273438 50.652344 62.585938 50.730469 C 61.976562 50.753906 61.488281 50.707031 61 50.328125 C 60.496094 49.859375 60.207031 49.4375 60.132812 48.734375 C 60.125 48 60.171875 47.472656 60.683594 46.917969 C 61.503906 46.160156 62.507812 46 63.507812 46.507812 Z M 63.507812 46.507812 "/>
<path style=" stroke:none;fill-rule:nonzero;fill:rgb(3.921569%,3.921569%,3.921569%);fill-opacity:1;" d="M 133.863281 46.519531 C 134.351562 46.839844 134.707031 47.265625 134.886719 47.820312 C 134.886719 48.128906 134.886719 48.433594 134.886719 48.75 C 133.660156 48.75 132.4375 48.75 131.175781 48.75 C 131.546875 49.519531 131.546875 49.519531 132.195312 49.957031 C 132.796875 50.03125 133.277344 49.9375 133.773438 49.585938 C 133.816406 49.515625 133.863281 49.449219 133.910156 49.375 C 134.050781 49.214844 134.050781 49.214844 134.230469 49.191406 C 134.417969 49.191406 134.605469 49.203125 134.792969 49.214844 C 134.683594 49.832031 134.257812 50.160156 133.773438 50.515625 C 133.183594 50.78125 132.425781 50.8125 131.796875 50.644531 C 131.214844 50.386719 130.75 49.90625 130.511719 49.320312 C 130.351562 48.707031 130.316406 47.996094 130.578125 47.410156 C 131.292969 46.214844 132.652344 45.945312 133.863281 46.519531 Z M 133.863281 46.519531 "/>
<path style=" stroke:none;fill-rule:nonzero;fill:rgb(3.921569%,3.921569%,3.921569%);fill-opacity:1;" d="M 109.761719 46.519531 C 110.246094 46.839844 110.605469 47.265625 110.78125 47.820312 C 110.78125 48.128906 110.78125 48.433594 110.78125 48.75 C 109.558594 48.75 108.335938 48.75 107.074219 48.75 C 107.445312 49.519531 107.445312 49.519531 108.09375 49.957031 C 108.691406 50.03125 109.171875 49.9375 109.667969 49.585938 C 109.714844 49.515625 109.761719 49.449219 109.808594 49.375 C 109.949219 49.214844 109.949219 49.214844 110.128906 49.191406 C 110.316406 49.191406 110.503906 49.203125 110.6875 49.214844 C 110.582031 49.832031 110.15625 50.160156 109.667969 50.515625 C 109.078125 50.78125 108.320312 50.8125 107.695312 50.644531 C 107.113281 50.386719 106.648438 49.90625 106.410156 49.320312 C 106.246094 48.707031 106.214844 47.996094 106.476562 47.410156 C 107.191406 46.214844 108.550781 45.945312 109.761719 46.519531 Z M 109.761719 46.519531 "/>
<path style=" stroke:none;fill-rule:nonzero;fill:rgb(3.921569%,3.921569%,3.921569%);fill-opacity:1;" d="M 74.257812 46.335938 C 75.328125 46.335938 76.398438 46.335938 77.5 46.335938 C 77.5 47.53125 77.5 48.726562 77.5 49.957031 C 77.683594 49.957031 77.867188 49.957031 78.058594 49.957031 C 78.058594 50.171875 78.058594 50.386719 78.058594 50.605469 C 77.660156 50.605469 77.261719 50.605469 76.851562 50.605469 C 76.820312 50.484375 76.789062 50.363281 76.757812 50.234375 C 76.695312 50.285156 76.695312 50.285156 76.632812 50.335938 C 76.167969 50.671875 75.804688 50.769531 75.234375 50.738281 C 74.773438 50.664062 74.53125 50.425781 74.226562 50.089844 C 73.960938 49.707031 73.941406 49.394531 73.976562 48.9375 C 74.136719 48.476562 74.371094 48.222656 74.804688 47.988281 C 75.167969 47.851562 75.535156 47.875 75.917969 47.890625 C 76.039062 47.894531 76.039062 47.894531 76.164062 47.894531 C 76.363281 47.902344 76.5625 47.90625 76.757812 47.914062 C 76.757812 47.636719 76.757812 47.363281 76.757812 47.078125 C 75.933594 47.078125 75.105469 47.078125 74.257812 47.078125 C 74.257812 46.832031 74.257812 46.589844 74.257812 46.335938 Z M 74.257812 46.335938 "/>
<path style=" stroke:none;fill-rule:nonzero;fill:rgb(3.921569%,3.921569%,3.921569%);fill-opacity:1;" d="M 38.472656 46.335938 C 39.542969 46.335938 40.613281 46.335938 41.71875 46.335938 C 41.71875 47.53125 41.71875 48.726562 41.71875 49.957031 C 41.902344 49.957031 42.085938 49.957031 42.273438 49.957031 C 42.273438 50.171875 42.273438 50.386719 42.273438 50.605469 C 41.875 50.605469 41.476562 50.605469 41.066406 50.605469 C 41.039062 50.484375 41.007812 50.363281 40.976562 50.234375 C 40.914062 50.285156 40.914062 50.285156 40.847656 50.335938 C 40.386719 50.671875 40.023438 50.769531 39.449219 50.738281 C 38.992188 50.664062 38.746094 50.425781 38.441406 50.089844 C 38.175781 49.707031 38.15625 49.394531 38.195312 48.9375 C 38.351562 48.476562 38.585938 48.222656 39.019531 47.988281 C 39.382812 47.851562 39.75 47.875 40.136719 47.890625 C 40.257812 47.894531 40.257812 47.894531 40.382812 47.894531 C 40.578125 47.902344 40.777344 47.90625 40.976562 47.914062 C 40.976562 47.636719 40.976562 47.363281 40.976562 47.078125 C 40.148438 47.078125 39.324219 47.078125 38.472656 47.078125 C 38.472656 46.832031 38.472656 46.589844 38.472656 46.335938 Z M 38.472656 46.335938 "/>
<path style=" stroke:none;fill-rule:nonzero;fill:rgb(3.529412%,3.529412%,3.529412%);fill-opacity:1;" d="M 103.71875 44.875 C 104.238281 45.160156 104.539062 45.402344 104.757812 45.964844 C 104.773438 46.230469 104.773438 46.230469 104.757812 46.429688 C 104.480469 46.429688 104.207031 46.429688 103.921875 46.429688 C 103.898438 46.324219 103.871094 46.222656 103.847656 46.113281 C 103.769531 45.757812 103.769531 45.757812 103.457031 45.59375 C 102.988281 45.515625 102.636719 45.523438 102.234375 45.785156 C 102.039062 46.050781 102.039062 46.050781 102.0625 46.386719 C 102.171875 46.746094 102.246094 46.847656 102.53125 47.078125 C 102.773438 47.179688 103.007812 47.265625 103.253906 47.34375 C 103.875 47.5625 104.410156 47.773438 104.769531 48.367188 C 104.941406 48.796875 104.933594 49.273438 104.765625 49.707031 C 104.503906 50.167969 104.214844 50.382812 103.734375 50.605469 C 103.644531 50.652344 103.644531 50.652344 103.550781 50.699219 C 102.863281 50.765625 102.265625 50.753906 101.695312 50.328125 C 101.3125 49.933594 101.140625 49.582031 101.140625 49.027344 C 101.386719 49.027344 101.628906 49.027344 101.882812 49.027344 C 101.917969 49.113281 101.949219 49.195312 101.988281 49.285156 C 102.195312 49.644531 102.339844 49.78125 102.714844 49.957031 C 103.121094 49.984375 103.441406 49.929688 103.789062 49.71875 C 103.949219 49.445312 103.964844 49.25 103.972656 48.9375 C 103.898438 48.660156 103.773438 48.554688 103.550781 48.378906 C 103.324219 48.273438 103.101562 48.183594 102.867188 48.101562 C 102.179688 47.851562 101.566406 47.585938 101.234375 46.894531 C 101.152344 46.34375 101.183594 45.871094 101.511719 45.40625 C 102.132812 44.78125 102.859375 44.523438 103.71875 44.875 Z M 103.71875 44.875 "/>
<path style=" stroke:none;fill-rule:nonzero;fill:rgb(3.137255%,3.137255%,3.137255%);fill-opacity:1;" d="M 127.933594 46.519531 C 128.386719 46.796875 128.632812 47.164062 128.859375 47.636719 C 128.859375 47.726562 128.859375 47.820312 128.859375 47.914062 C 128.371094 47.964844 128.371094 47.964844 128.117188 47.914062 C 127.921875 47.652344 127.921875 47.652344 127.746094 47.355469 C 127.269531 47.007812 126.738281 47.003906 126.171875 47.078125 C 125.761719 47.277344 125.5 47.484375 125.335938 47.914062 C 125.273438 48.492188 125.269531 49.003906 125.613281 49.492188 C 125.949219 49.804688 126.191406 49.941406 126.652344 49.984375 C 127.082031 49.949219 127.394531 49.839844 127.746094 49.585938 C 127.808594 49.484375 127.867188 49.386719 127.933594 49.285156 C 128.117188 49.027344 128.117188 49.027344 128.304688 48.992188 C 128.511719 48.992188 128.511719 48.992188 128.859375 49.027344 C 128.847656 49.53125 128.640625 49.804688 128.308594 50.15625 C 127.730469 50.671875 127.125 50.761719 126.363281 50.734375 C 125.664062 50.648438 125.273438 50.3125 124.820312 49.789062 C 124.425781 49.1875 124.433594 48.515625 124.5 47.820312 C 124.660156 47.238281 125.03125 46.855469 125.523438 46.519531 C 126.296875 46.082031 127.140625 46.144531 127.933594 46.519531 Z M 127.933594 46.519531 "/>
<path style=" stroke:none;fill-rule:nonzero;fill:rgb(98.039216%,98.039216%,98.039216%);fill-opacity:1;" d="M 56.921875 46.984375 C 57.34375 47.226562 57.664062 47.550781 57.847656 48.007812 C 57.945312 48.601562 57.824219 49.097656 57.476562 49.585938 C 57.128906 49.941406 56.8125 49.992188 56.328125 50.019531 C 55.777344 50.003906 55.496094 49.875 55.113281 49.484375 C 54.765625 49.035156 54.726562 48.65625 54.789062 48.101562 C 55.128906 47.117188 55.953125 46.835938 56.921875 46.984375 Z M 56.921875 46.984375 "/>
<path style=" stroke:none;fill-rule:nonzero;fill:rgb(98.823529%,98.823529%,98.823529%);fill-opacity:1;" d="M 89.101562 47.050781 C 89.5 47.257812 89.738281 47.507812 89.921875 47.914062 C 90 48.488281 89.988281 49.003906 89.644531 49.492188 C 89.128906 49.957031 88.78125 50 88.09375 49.996094 C 87.710938 49.945312 87.53125 49.832031 87.257812 49.566406 C 86.902344 49.058594 86.886719 48.515625 86.957031 47.914062 C 87.371094 47.03125 88.191406 46.753906 89.101562 47.050781 Z M 89.101562 47.050781 "/>
<path style=" stroke:none;fill-rule:nonzero;fill:rgb(98.823529%,98.823529%,98.823529%);fill-opacity:1;" d="M 63.050781 47.050781 C 63.449219 47.257812 63.6875 47.507812 63.875 47.914062 C 63.949219 48.488281 63.9375 49.003906 63.59375 49.492188 C 63.078125 49.957031 62.730469 50 62.046875 49.996094 C 61.660156 49.945312 61.480469 49.832031 61.210938 49.566406 C 60.851562 49.058594 60.835938 48.515625 60.90625 47.914062 C 61.324219 47.03125 62.140625 46.753906 63.050781 47.050781 Z M 63.050781 47.050781 "/>
<path style=" stroke:none;fill-rule:nonzero;fill:rgb(1.176471%,1.176471%,1.176471%);fill-opacity:1;" d="M 95.324219 46.308594 C 95.824219 46.535156 96.164062 46.859375 96.414062 47.355469 C 96.421875 47.601562 96.421875 47.84375 96.421875 48.085938 C 96.421875 48.15625 96.421875 48.230469 96.421875 48.304688 C 96.421875 48.535156 96.417969 48.765625 96.417969 48.992188 C 96.417969 49.148438 96.417969 49.304688 96.417969 49.460938 C 96.414062 49.84375 96.414062 50.226562 96.414062 50.605469 C 96.199219 50.605469 95.984375 50.605469 95.761719 50.605469 C 95.761719 50.527344 95.761719 50.449219 95.757812 50.367188 C 95.753906 50.074219 95.746094 49.78125 95.738281 49.488281 C 95.734375 49.359375 95.734375 49.234375 95.730469 49.105469 C 95.726562 48.921875 95.722656 48.742188 95.71875 48.558594 C 95.714844 48.449219 95.714844 48.339844 95.710938 48.226562 C 95.65625 47.796875 95.523438 47.476562 95.203125 47.183594 C 94.796875 47.027344 94.429688 47.015625 94.003906 47.078125 C 93.679688 47.234375 93.503906 47.335938 93.339844 47.65625 C 93.246094 47.960938 93.230469 48.226562 93.222656 48.546875 C 93.21875 48.667969 93.214844 48.789062 93.210938 48.914062 C 93.207031 49.039062 93.207031 49.164062 93.203125 49.289062 C 93.199219 49.417969 93.195312 49.546875 93.191406 49.671875 C 93.183594 49.984375 93.175781 50.296875 93.167969 50.605469 C 92.953125 50.605469 92.738281 50.605469 92.519531 50.605469 C 92.519531 49.199219 92.519531 47.789062 92.519531 46.335938 C 92.734375 46.335938 92.945312 46.335938 93.167969 46.335938 C 93.199219 46.519531 93.230469 46.703125 93.261719 46.894531 C 93.34375 46.820312 93.429688 46.746094 93.515625 46.671875 C 94.054688 46.207031 94.632812 46.09375 95.324219 46.308594 Z M 95.324219 46.308594 "/>
<path style=" stroke:none;fill-rule:nonzero;fill:rgb(1.176471%,1.176471%,1.176471%);fill-opacity:1;" d="M 46.652344 46.308594 C 47.152344 46.535156 47.496094 46.859375 47.742188 47.355469 C 47.75 47.601562 47.753906 47.84375 47.75 48.085938 C 47.75 48.15625 47.75 48.230469 47.75 48.304688 C 47.75 48.535156 47.75 48.765625 47.75 48.992188 C 47.75 49.148438 47.746094 49.304688 47.746094 49.460938 C 47.746094 49.84375 47.746094 50.226562 47.742188 50.605469 C 47.527344 50.605469 47.3125 50.605469 47.09375 50.605469 C 47.09375 50.527344 47.089844 50.449219 47.089844 50.367188 C 47.085938 50.074219 47.078125 49.78125 47.070312 49.488281 C 47.066406 49.359375 47.0625 49.234375 47.0625 49.105469 C 47.058594 48.921875 47.054688 48.742188 47.046875 48.558594 C 47.046875 48.449219 47.042969 48.339844 47.042969 48.226562 C 46.984375 47.796875 46.855469 47.476562 46.53125 47.183594 C 46.128906 47.027344 45.757812 47.015625 45.332031 47.078125 C 45.011719 47.234375 44.835938 47.335938 44.671875 47.65625 C 44.574219 47.960938 44.5625 48.226562 44.550781 48.546875 C 44.546875 48.667969 44.546875 48.789062 44.542969 48.914062 C 44.539062 49.039062 44.535156 49.164062 44.53125 49.289062 C 44.53125 49.417969 44.527344 49.546875 44.523438 49.671875 C 44.511719 49.984375 44.503906 50.296875 44.5 50.605469 C 44.285156 50.605469 44.070312 50.605469 43.847656 50.605469 C 43.847656 49.199219 43.847656 47.789062 43.847656 46.335938 C 44.0625 46.335938 44.277344 46.335938 44.5 46.335938 C 44.527344 46.519531 44.558594 46.703125 44.589844 46.894531 C 44.675781 46.820312 44.757812 46.746094 44.847656 46.671875 C 45.386719 46.207031 45.960938 46.09375 46.652344 46.308594 Z M 46.652344 46.308594 "/>
<path style=" stroke:none;fill-rule:nonzero;fill:rgb(5.882353%,5.882353%,5.882353%);fill-opacity:1;" d="M 29.574219 44.851562 C 30.886719 44.851562 32.203125 44.851562 33.558594 44.851562 C 33.558594 45.09375 33.558594 45.339844 33.558594 45.59375 C 33.039062 45.59375 32.519531 45.59375 31.984375 45.59375 C 31.984375 47.246094 31.984375 48.902344 31.984375 50.605469 C 31.707031 50.605469 31.433594 50.605469 31.148438 50.605469 C 31.148438 48.953125 31.148438 47.296875 31.148438 45.59375 C 30.628906 45.59375 30.109375 45.59375 29.574219 45.59375 C 29.574219 45.347656 29.574219 45.101562 29.574219 44.851562 Z M 29.574219 44.851562 "/>
<path style=" stroke:none;fill-rule:nonzero;fill:rgb(3.529412%,3.529412%,3.529412%);fill-opacity:1;" d="M 138.429688 46.332031 C 138.804688 46.550781 139.074219 46.761719 139.242188 47.171875 C 139.242188 47.292969 139.242188 47.417969 139.242188 47.542969 C 138.742188 47.582031 138.742188 47.582031 138.5 47.542969 C 138.402344 47.390625 138.308594 47.234375 138.222656 47.078125 C 137.859375 46.988281 137.648438 46.960938 137.296875 47.078125 C 137.257812 47.449219 137.257812 47.449219 137.394531 47.777344 C 137.738281 48.039062 138.160156 48.160156 138.5625 48.3125 C 138.894531 48.484375 139.046875 48.617188 139.242188 48.9375 C 139.339844 49.386719 139.285156 49.769531 139.097656 50.183594 C 138.722656 50.574219 138.335938 50.710938 137.804688 50.742188 C 137.355469 50.722656 137.097656 50.59375 136.738281 50.328125 C 136.488281 50.015625 136.425781 49.796875 136.460938 49.398438 C 136.707031 49.398438 136.949219 49.398438 137.203125 49.398438 C 137.230469 49.476562 137.257812 49.550781 137.285156 49.625 C 137.363281 49.875 137.363281 49.875 137.574219 49.957031 C 137.949219 49.980469 138.085938 49.984375 138.40625 49.769531 C 138.460938 49.496094 138.460938 49.496094 138.40625 49.214844 C 138.15625 48.984375 137.898438 48.871094 137.578125 48.753906 C 137.144531 48.585938 136.808594 48.410156 136.523438 48.03125 C 136.425781 47.703125 136.390625 47.410156 136.460938 47.078125 C 136.898438 46.351562 137.609375 45.984375 138.429688 46.332031 Z M 138.429688 46.332031 "/>
<path style=" stroke:none;fill-rule:nonzero;fill:rgb(3.529412%,3.529412%,3.529412%);fill-opacity:1;" d="M 51.476562 46.332031 C 51.847656 46.550781 52.117188 46.761719 52.285156 47.171875 C 52.285156 47.292969 52.285156 47.417969 52.285156 47.542969 C 51.785156 47.582031 51.785156 47.582031 51.542969 47.542969 C 51.445312 47.390625 51.355469 47.234375 51.265625 47.078125 C 50.90625 46.988281 50.691406 46.960938 50.339844 47.078125 C 50.300781 47.449219 50.300781 47.449219 50.4375 47.777344 C 50.78125 48.039062 51.203125 48.160156 51.605469 48.3125 C 51.941406 48.484375 52.089844 48.617188 52.285156 48.9375 C 52.382812 49.386719 52.328125 49.769531 52.140625 50.183594 C 51.769531 50.574219 51.378906 50.710938 50.847656 50.742188 C 50.398438 50.722656 50.140625 50.59375 49.78125 50.328125 C 49.53125 50.015625 49.46875 49.796875 49.503906 49.398438 C 49.75 49.398438 49.992188 49.398438 50.246094 49.398438 C 50.273438 49.476562 50.300781 49.550781 50.328125 49.625 C 50.40625 49.875 50.40625 49.875 50.617188 49.957031 C 50.992188 49.980469 51.128906 49.984375 51.449219 49.769531 C 51.503906 49.496094 51.503906 49.496094 51.449219 49.214844 C 51.199219 48.984375 50.941406 48.871094 50.621094 48.753906 C 50.1875 48.585938 49.851562 48.410156 49.566406 48.03125 C 49.46875 47.703125 49.433594 47.410156 49.503906 47.078125 C 49.941406 46.351562 50.652344 45.984375 51.476562 46.332031 Z M 51.476562 46.332031 "/>
<path style=" stroke:none;fill-rule:nonzero;fill:rgb(97.647059%,97.647059%,97.647059%);fill-opacity:1;" d="M 139.898438 13.722656 C 140.28125 13.925781 140.542969 14.15625 140.695312 14.5625 C 140.773438 15.113281 140.746094 15.492188 140.445312 15.972656 C 140.113281 16.371094 139.8125 16.507812 139.300781 16.5625 C 138.769531 16.507812 138.449219 16.304688 138.09375 15.914062 C 137.8125 15.5 137.78125 15.164062 137.851562 14.671875 C 138.007812 14.296875 138.21875 14.015625 138.519531 13.742188 C 138.96875 13.582031 139.445312 13.554688 139.898438 13.722656 Z M 139.898438 13.722656 "/>
<path style=" stroke:none;fill-rule:nonzero;fill:rgb(3.529412%,3.529412%,3.529412%);fill-opacity:1;" d="M 116.066406 46.335938 C 116.3125 46.335938 116.554688 46.335938 116.808594 46.335938 C 117.164062 47.023438 117.46875 47.722656 117.761719 48.4375 C 117.804688 48.539062 117.847656 48.640625 117.890625 48.746094 C 117.992188 48.996094 118.097656 49.242188 118.199219 49.492188 C 118.453125 49.183594 118.59375 48.871094 118.742188 48.5 C 118.78125 48.410156 118.78125 48.410156 118.816406 48.320312 C 118.894531 48.132812 118.96875 47.945312 119.042969 47.757812 C 119.121094 47.570312 119.195312 47.378906 119.273438 47.191406 C 119.34375 47.019531 119.410156 46.851562 119.480469 46.679688 C 119.589844 46.429688 119.589844 46.429688 119.679688 46.335938 C 119.929688 46.324219 120.175781 46.332031 120.421875 46.335938 C 120.367188 46.644531 120.292969 46.914062 120.167969 47.203125 C 120.132812 47.277344 120.101562 47.355469 120.066406 47.433594 C 120.027344 47.515625 119.992188 47.59375 119.957031 47.679688 C 119.902344 47.804688 119.902344 47.804688 119.84375 47.933594 C 119.726562 48.199219 119.609375 48.464844 119.488281 48.734375 C 119.410156 48.914062 119.332031 49.09375 119.25 49.277344 C 119.054688 49.71875 118.859375 50.164062 118.660156 50.605469 C 118.386719 50.605469 118.109375 50.605469 117.828125 50.605469 C 117.574219 50.042969 117.324219 49.480469 117.074219 48.917969 C 116.988281 48.726562 116.902344 48.53125 116.820312 48.339844 C 116.695312 48.066406 116.574219 47.789062 116.449219 47.515625 C 116.414062 47.429688 116.375 47.34375 116.335938 47.253906 C 116.300781 47.175781 116.265625 47.09375 116.226562 47.011719 C 116.195312 46.941406 116.164062 46.871094 116.132812 46.800781 C 116.066406 46.613281 116.066406 46.613281 116.066406 46.335938 Z M 116.066406 46.335938 "/>
<path style=" stroke:none;fill-rule:nonzero;fill:rgb(1.960784%,1.960784%,1.960784%);fill-opacity:1;" d="M 80.097656 45.128906 C 80.339844 45.128906 80.585938 45.128906 80.839844 45.128906 C 80.839844 45.527344 80.839844 45.925781 80.839844 46.335938 C 81.207031 46.335938 81.574219 46.335938 81.949219 46.335938 C 81.949219 46.550781 81.949219 46.765625 81.949219 46.984375 C 81.554688 46.984375 81.15625 46.984375 80.746094 46.984375 C 80.746094 47.964844 80.746094 48.945312 80.746094 49.957031 C 81.144531 49.957031 81.539062 49.957031 81.949219 49.957031 C 81.949219 50.171875 81.949219 50.386719 81.949219 50.605469 C 81.339844 50.605469 80.726562 50.605469 80.097656 50.605469 C 80.097656 49.410156 80.097656 48.21875 80.097656 46.984375 C 79.820312 46.984375 79.546875 46.984375 79.261719 46.984375 C 79.261719 46.769531 79.261719 46.558594 79.261719 46.335938 C 79.539062 46.335938 79.8125 46.335938 80.097656 46.335938 C 80.097656 45.9375 80.097656 45.539062 80.097656 45.128906 Z M 80.097656 45.128906 "/>
<path style=" stroke:none;fill-rule:nonzero;fill:rgb(1.960784%,1.960784%,1.960784%);fill-opacity:1;" d="M 70.734375 45.128906 C 70.976562 45.128906 71.222656 45.128906 71.476562 45.128906 C 71.476562 45.527344 71.476562 45.925781 71.476562 46.335938 C 71.84375 46.335938 72.210938 46.335938 72.585938 46.335938 C 72.585938 46.550781 72.585938 46.765625 72.585938 46.984375 C 72.191406 46.984375 71.792969 46.984375 71.382812 46.984375 C 71.382812 47.964844 71.382812 48.945312 71.382812 49.957031 C 71.78125 49.957031 72.179688 49.957031 72.585938 49.957031 C 72.585938 50.171875 72.585938 50.386719 72.585938 50.605469 C 71.976562 50.605469 71.363281 50.605469 70.734375 50.605469 C 70.734375 49.410156 70.734375 48.21875 70.734375 46.984375 C 70.457031 46.984375 70.183594 46.984375 69.898438 46.984375 C 69.898438 46.769531 69.898438 46.558594 69.898438 46.335938 C 70.175781 46.335938 70.449219 46.335938 70.734375 46.335938 C 70.734375 45.9375 70.734375 45.539062 70.734375 45.128906 Z M 70.734375 45.128906 "/>
<path style=" stroke:none;fill-rule:nonzero;fill:rgb(1.568628%,1.568628%,1.568628%);fill-opacity:1;" d="M 112.636719 46.335938 C 112.851562 46.335938 113.0625 46.335938 113.285156 46.335938 C 113.316406 46.550781 113.347656 46.765625 113.378906 46.984375 C 113.449219 46.914062 113.519531 46.839844 113.589844 46.765625 C 114.027344 46.339844 114.027344 46.339844 114.414062 46.324219 C 114.5 46.328125 114.585938 46.332031 114.675781 46.335938 C 114.675781 46.582031 114.675781 46.824219 114.675781 47.078125 C 114.5625 47.097656 114.449219 47.117188 114.332031 47.136719 C 113.882812 47.246094 113.726562 47.441406 113.46875 47.820312 C 113.371094 48.121094 113.359375 48.359375 113.347656 48.675781 C 113.34375 48.789062 113.339844 48.898438 113.335938 49.015625 C 113.332031 49.132812 113.328125 49.25 113.324219 49.371094 C 113.320312 49.546875 113.320312 49.546875 113.3125 49.730469 C 113.304688 50.023438 113.292969 50.316406 113.285156 50.605469 C 113.070312 50.605469 112.855469 50.605469 112.636719 50.605469 C 112.636719 49.199219 112.636719 47.789062 112.636719 46.335938 Z M 112.636719 46.335938 "/>
<path style=" stroke:none;fill-rule:nonzero;fill:rgb(1.568628%,1.568628%,1.568628%);fill-opacity:1;" d="M 66.46875 46.335938 C 66.683594 46.335938 66.898438 46.335938 67.117188 46.335938 C 67.148438 46.550781 67.179688 46.765625 67.210938 46.984375 C 67.28125 46.914062 67.351562 46.839844 67.425781 46.765625 C 67.859375 46.339844 67.859375 46.339844 68.246094 46.324219 C 68.332031 46.328125 68.417969 46.332031 68.507812 46.335938 C 68.507812 46.582031 68.507812 46.824219 68.507812 47.078125 C 68.394531 47.097656 68.28125 47.117188 68.167969 47.136719 C 67.714844 47.246094 67.558594 47.441406 67.304688 47.820312 C 67.203125 48.121094 67.191406 48.359375 67.179688 48.675781 C 67.175781 48.789062 67.171875 48.898438 67.167969 49.015625 C 67.164062 49.132812 67.164062 49.25 67.160156 49.371094 C 67.152344 49.546875 67.152344 49.546875 67.144531 49.730469 C 67.136719 50.023438 67.128906 50.316406 67.117188 50.605469 C 66.902344 50.605469 66.691406 50.605469 66.46875 50.605469 C 66.46875 49.199219 66.46875 47.789062 66.46875 46.335938 Z M 66.46875 46.335938 "/>
<path style=" stroke:none;fill-rule:nonzero;fill:rgb(1.568628%,1.568628%,1.568628%);fill-opacity:1;" d="M 34.855469 46.335938 C 35.070312 46.335938 35.285156 46.335938 35.503906 46.335938 C 35.535156 46.550781 35.566406 46.765625 35.597656 46.984375 C 35.667969 46.914062 35.738281 46.839844 35.8125 46.765625 C 36.25 46.339844 36.25 46.339844 36.636719 46.324219 C 36.722656 46.328125 36.808594 46.332031 36.894531 46.335938 C 36.894531 46.582031 36.894531 46.824219 36.894531 47.078125 C 36.785156 47.097656 36.671875 47.117188 36.554688 47.136719 C 36.105469 47.246094 35.945312 47.441406 35.691406 47.820312 C 35.589844 48.121094 35.578125 48.359375 35.570312 48.675781 C 35.566406 48.789062 35.5625 48.898438 35.558594 49.015625 C 35.554688 49.132812 35.550781 49.25 35.546875 49.371094 C 35.539062 49.546875 35.539062 49.546875 35.535156 49.730469 C 35.523438 50.023438 35.515625 50.316406 35.503906 50.605469 C 35.292969 50.605469 35.078125 50.605469 34.855469 50.605469 C 34.855469 49.199219 34.855469 47.789062 34.855469 46.335938 Z M 34.855469 46.335938 "/>
<path style=" stroke:none;fill-rule:nonzero;fill:rgb(0.392157%,0.392157%,0.392157%);fill-opacity:1;" d="M 122.089844 46.335938 C 122.304688 46.335938 122.519531 46.335938 122.742188 46.335938 C 122.742188 47.746094 122.742188 49.15625 122.742188 50.605469 C 122.527344 50.605469 122.3125 50.605469 122.089844 50.605469 C 122.089844 49.199219 122.089844 47.789062 122.089844 46.335938 Z M 122.089844 46.335938 "/>
<path style=" stroke:none;fill-rule:nonzero;fill:rgb(0.392157%,0.392157%,0.392157%);fill-opacity:1;" d="M 83.804688 46.335938 C 84.019531 46.335938 84.234375 46.335938 84.453125 46.335938 C 84.453125 47.746094 84.453125 49.15625 84.453125 50.605469 C 84.238281 50.605469 84.023438 50.605469 83.804688 50.605469 C 83.804688 49.199219 83.804688 47.789062 83.804688 46.335938 Z M 83.804688 46.335938 "/>
<path style=" stroke:none;fill-rule:nonzero;fill:rgb(97.647059%,97.647059%,97.647059%);fill-opacity:1;" d="M 133.328125 47.050781 C 133.648438 47.226562 133.859375 47.410156 134.050781 47.730469 C 134.050781 47.851562 134.050781 47.972656 134.050781 48.101562 C 133.132812 48.101562 132.214844 48.101562 131.269531 48.101562 C 131.375 47.472656 131.375 47.472656 131.675781 47.234375 C 131.730469 47.191406 131.789062 47.144531 131.84375 47.097656 C 132.3125 46.78125 132.832031 46.820312 133.328125 47.050781 Z M 133.328125 47.050781 "/>
<path style=" stroke:none;fill-rule:nonzero;fill:rgb(97.647059%,97.647059%,97.647059%);fill-opacity:1;" d="M 109.222656 47.050781 C 109.542969 47.226562 109.757812 47.410156 109.949219 47.730469 C 109.949219 47.851562 109.949219 47.972656 109.949219 48.101562 C 109.03125 48.101562 108.113281 48.101562 107.167969 48.101562 C 107.269531 47.472656 107.269531 47.472656 107.570312 47.234375 C 107.628906 47.191406 107.683594 47.144531 107.742188 47.097656 C 108.210938 46.78125 108.726562 46.820312 109.222656 47.050781 Z M 109.222656 47.050781 "/>
<path style=" stroke:none;fill-rule:nonzero;fill:rgb(98.039216%,98.039216%,98.039216%);fill-opacity:1;" d="M 76 48.535156 C 76.074219 48.539062 76.144531 48.539062 76.222656 48.542969 C 76.402344 48.546875 76.578125 48.554688 76.757812 48.5625 C 76.785156 48.910156 76.800781 49.242188 76.757812 49.585938 C 76.453125 49.925781 76.210938 50.042969 75.757812 50.074219 C 75.402344 50.070312 75.1875 49.996094 74.90625 49.769531 C 74.703125 49.46875 74.660156 49.382812 74.71875 49.027344 C 75.101562 48.515625 75.40625 48.503906 76 48.535156 Z M 76 48.535156 "/>
<path style=" stroke:none;fill-rule:nonzero;fill:rgb(98.039216%,98.039216%,98.039216%);fill-opacity:1;" d="M 40.214844 48.535156 C 40.289062 48.539062 40.363281 48.539062 40.4375 48.542969 C 40.617188 48.546875 40.796875 48.554688 40.976562 48.5625 C 41.003906 48.910156 41.015625 49.242188 40.976562 49.585938 C 40.667969 49.925781 40.425781 50.042969 39.972656 50.074219 C 39.617188 50.070312 39.40625 49.996094 39.121094 49.769531 C 38.917969 49.46875 38.878906 49.382812 38.9375 49.027344 C 39.316406 48.515625 39.625 48.503906 40.214844 48.535156 Z M 40.214844 48.535156 "/>
<path style=" stroke:none;fill-rule:nonzero;fill:rgb(3.137255%,3.137255%,3.137255%);fill-opacity:1;" d="M 122.417969 44.546875 C 122.648438 44.570312 122.648438 44.570312 122.832031 44.757812 C 122.855469 45.035156 122.855469 45.035156 122.832031 45.3125 C 122.648438 45.5 122.648438 45.5 122.421875 45.527344 C 122.183594 45.5 122.183594 45.5 122.011719 45.390625 C 121.90625 45.222656 121.90625 45.222656 121.921875 44.984375 C 122.023438 44.679688 122.09375 44.582031 122.417969 44.546875 Z M 122.417969 44.546875 "/>
<path style=" stroke:none;fill-rule:nonzero;fill:rgb(3.137255%,3.137255%,3.137255%);fill-opacity:1;" d="M 84.128906 44.546875 C 84.359375 44.570312 84.359375 44.570312 84.546875 44.757812 C 84.570312 45.035156 84.570312 45.035156 84.546875 45.3125 C 84.359375 45.5 84.359375 45.5 84.136719 45.527344 C 83.898438 45.5 83.898438 45.5 83.722656 45.390625 C 83.621094 45.222656 83.621094 45.222656 83.636719 44.984375 C 83.738281 44.679688 83.808594 44.582031 84.128906 44.546875 Z M 84.128906 44.546875 "/>
</g>
</svg>
