<svg width="169" height="36" viewBox="0 0 169 36" fill="none" xmlns="http://www.w3.org/2000/svg">
<path d="M23.9686 13.4958L22.8154 15.4927C22.6994 15.6944 22.4842 15.8185 22.2516 15.8185H14.3685C14.1359 15.8185 13.9212 15.9425 13.8046 16.1442L12.9927 17.5504C12.8766 17.7516 12.8761 18.0002 12.9927 18.2014L13.8046 19.6076C13.9212 19.8088 14.1359 19.9333 14.3685 19.9333H22.2521C22.4842 19.9333 22.6994 20.0574 22.8154 20.2581L26.9986 27.4842C27.1151 27.6854 27.3298 27.809 27.5619 27.809H29.1863C29.4189 27.809 29.6341 27.6849 29.7501 27.4832L30.5615 26.0775C30.6781 25.8758 30.6776 25.6272 30.5611 25.4255L26.3789 18.2009C26.2623 17.9992 26.2619 17.7506 26.3784 17.5489L27.6038 15.4269C27.8543 14.9931 28.4809 14.9931 28.7315 15.4269L29.8189 17.3103C30.0694 17.7442 30.696 17.7442 30.9466 17.3103L31.894 15.669C32.01 15.4678 32.01 15.2192 31.894 15.018L30.4505 12.5185L30.0545 11.8326C29.9379 11.6313 29.9379 11.3828 30.0545 11.1815L30.4181 10.5519C30.6686 10.1181 30.3553 9.5752 29.8542 9.5752H26.231H25.3523H17.9723C17.7397 9.5752 17.5245 9.69923 17.4084 9.90095L16.461 11.5417C16.2105 11.9755 16.5238 12.5185 17.0249 12.5185H23.4042C23.9058 12.519 24.2191 13.0619 23.9686 13.4958Z" fill="#DF1119"/>
<path d="M37.3113 5.49964C35.3458 2.09655 31.7141 0 27.7835 0H20.7427H14.5701C13.9046 0 13.2905 0.354664 12.9577 0.930973L6.79863 11.599L3.32381 17.6171C3.23166 17.777 3.23166 17.9743 3.32381 18.1342L5.11552 21.2379C5.36657 21.6727 5.81636 21.9557 6.31696 21.9935L10.1504 22.2829C10.4248 22.3038 10.4637 22.6904 10.1987 22.7651L6.58594 23.7842L6.59441 23.7987L0.488575 25.4654C-0.0932176 25.6242 0.0218508 26.481 0.624565 26.481H5.45423H8.14303H13.145H14.4954C14.8934 26.481 15.142 26.0501 14.9432 25.7059L13.5007 23.2074L11.6103 19.9333L10.8806 18.6691C10.5972 18.1785 10.5972 17.5738 10.8806 17.0832L11.6103 15.8189L16.582 7.20815C16.9147 6.63234 17.5294 6.27719 18.1944 6.27719H36.865C37.2615 6.27669 37.5096 5.84383 37.3113 5.49964Z" fill="#DF1119"/>
<path d="M37.8911 12.64C37.5997 12.6146 37.5664 12.2012 37.8503 12.1295L44.4522 10.4752C44.9748 10.3452 44.8806 9.57568 44.3422 9.57568H33.705C33.1327 9.57568 32.7751 10.1953 33.061 10.6909L36.9946 17.5036C37.1275 17.7337 37.1275 18.0171 36.9946 18.2472L31.7001 27.4174L30.941 28.7325C30.6755 29.1917 30.1859 29.4746 29.6554 29.4746H28.1372H17.119H11.1591C10.5867 29.4746 10.2291 30.0943 10.515 30.5899L12.7475 34.4562C13.2103 35.2577 14.0651 35.7513 14.9905 35.7513H20.7427H26.8889H27.653C31.6648 35.7513 35.3722 33.611 37.3781 30.1366L37.7601 29.4746L41.215 23.4903C43.0047 20.3906 43.1965 16.6493 41.7923 13.4111C41.6738 13.1376 41.4168 12.9488 41.1194 12.9229L37.8911 12.64Z" fill="#DF1119"/>
<path d="M58.4771 28.9731V10.4989H52V6.63814H69.7404V10.4989H63.2632V28.9731H58.4771Z" fill="black"/>
<path d="M70.2972 28.9731V12.8919H74.5409L74.9876 15.8274C75.413 15.1467 75.9129 14.5617 76.4872 14.0725C77.0615 13.5833 77.721 13.2004 78.4655 12.9238C79.2312 12.6473 80.0502 12.509 80.9223 12.509V17.5823H79.3269C78.6888 17.5823 78.1038 17.6567 77.5721 17.8056C77.0615 17.9333 76.6148 18.1566 76.232 18.4757C75.8703 18.7948 75.5832 19.2308 75.3705 19.7839C75.179 20.3157 75.0833 20.9857 75.0833 21.794V28.9731H70.2972Z" fill="black"/>
<path d="M88.2265 29.356C86.8864 29.356 85.7697 29.1433 84.8763 28.7179C84.0042 28.2924 83.3554 27.7181 82.93 26.9949C82.5258 26.2504 82.3237 25.4314 82.3237 24.538C82.3237 23.5808 82.5577 22.7406 83.0257 22.0174C83.5149 21.2729 84.2701 20.6879 85.2911 20.2625C86.3121 19.8158 87.599 19.5924 89.1518 19.5924H93.0445C93.0445 18.8692 92.9488 18.2736 92.7573 17.8056C92.5872 17.3377 92.3 16.9867 91.8959 16.7527C91.4917 16.5187 90.9386 16.4017 90.2367 16.4017C89.4922 16.4017 88.8647 16.5506 88.3542 16.8484C87.8437 17.1462 87.5246 17.6142 87.397 18.2523H82.8023C82.9087 17.1037 83.2809 16.1039 83.9191 15.2531C84.5785 14.4022 85.4506 13.7322 86.5355 13.2429C87.6203 12.7537 88.8647 12.509 90.2686 12.509C91.8001 12.509 93.1296 12.7643 94.257 13.2748C95.3844 13.7641 96.2565 14.4873 96.8734 15.4445C97.5115 16.4017 97.8306 17.5929 97.8306 19.0181V28.9731H93.8422L93.2679 26.6439C93.0339 27.0481 92.7573 27.4203 92.4383 27.7606C92.1192 28.0797 91.747 28.3669 91.3215 28.6221C90.8961 28.8561 90.4281 29.0369 89.9176 29.1646C89.4071 29.2922 88.8434 29.356 88.2265 29.356ZM89.4071 25.7186C89.9176 25.7186 90.3643 25.6335 90.7472 25.4633C91.1301 25.2932 91.4598 25.0592 91.7363 24.7614C92.0128 24.4636 92.2362 24.1232 92.4064 23.7404C92.5978 23.3362 92.7361 22.9001 92.8212 22.4322V22.4003H89.7262C89.1944 22.4003 88.7477 22.4747 88.3861 22.6236C88.0457 22.7512 87.7905 22.9427 87.6203 23.1979C87.4501 23.4532 87.365 23.751 87.365 24.0913C87.365 24.4529 87.4501 24.7614 87.6203 25.0166C87.8117 25.2506 88.0564 25.4314 88.3542 25.5591C88.6732 25.6654 89.0242 25.7186 89.4071 25.7186Z" fill="black"/>
<path d="M100.851 28.9731V12.8919H105.031L105.414 15.4764C105.903 14.583 106.594 13.8704 107.487 13.3386C108.381 12.7856 109.466 12.509 110.742 12.509C112.082 12.509 113.209 12.7962 114.124 13.3705C115.039 13.9449 115.73 14.7745 116.198 15.8593C116.687 16.9229 116.932 18.2311 116.932 19.7839V28.9731H112.178V20.2306C112.178 19.0606 111.923 18.1566 111.412 17.5185C110.923 16.8591 110.136 16.5293 109.051 16.5293C108.413 16.5293 107.828 16.6889 107.296 17.008C106.786 17.3058 106.381 17.7418 106.084 18.3161C105.786 18.8905 105.637 19.5818 105.637 20.3901V28.9731H100.851Z" fill="black"/>
<path d="M126.661 29.356C125.15 29.356 123.842 29.122 122.736 28.654C121.651 28.1648 120.79 27.5054 120.152 26.6758C119.535 25.8462 119.184 24.9103 119.099 23.868H123.853C123.938 24.2296 124.087 24.5593 124.3 24.8571C124.534 25.1336 124.842 25.357 125.225 25.5272C125.629 25.6761 126.076 25.7505 126.565 25.7505C127.097 25.7505 127.522 25.6867 127.841 25.5591C128.182 25.4102 128.437 25.2187 128.607 24.9847C128.777 24.7507 128.862 24.5061 128.862 24.2509C128.862 23.8467 128.735 23.5383 128.479 23.3256C128.245 23.1128 127.894 22.9427 127.426 22.815C126.958 22.6661 126.395 22.5279 125.735 22.4003C124.97 22.2301 124.204 22.0386 123.438 21.8259C122.694 21.5919 122.023 21.3048 121.428 20.9644C120.854 20.6241 120.386 20.188 120.024 19.6562C119.684 19.1032 119.513 18.4331 119.513 17.6461C119.513 16.6889 119.779 15.8274 120.311 15.0616C120.843 14.2746 121.609 13.6577 122.608 13.211C123.608 12.743 124.821 12.509 126.246 12.509C128.267 12.509 129.851 12.9557 131 13.8491C132.149 14.7425 132.829 15.9444 133.042 17.4547H128.575C128.447 17.0292 128.182 16.7102 127.777 16.4974C127.373 16.2635 126.863 16.1465 126.246 16.1465C125.544 16.1465 125.012 16.2635 124.65 16.4974C124.289 16.7314 124.108 17.0399 124.108 17.4227C124.108 17.678 124.225 17.912 124.459 18.1247C124.714 18.3161 125.076 18.4863 125.544 18.6352C126.012 18.7841 126.586 18.933 127.267 19.0819C128.564 19.3584 129.681 19.6562 130.617 19.9753C131.574 20.2944 132.319 20.7624 132.851 21.3792C133.382 21.9748 133.638 22.847 133.616 23.9956C133.638 25.0379 133.361 25.9632 132.787 26.7715C132.234 27.5798 131.436 28.218 130.394 28.686C129.351 29.1327 128.107 29.356 126.661 29.356Z" fill="black"/>
<path d="M146.955 28.9731L140.318 20.1668L146.221 12.8919H151.869L143.924 22.2088V18.38L152.89 28.9731H146.955ZM136.234 28.9731V6H141.02V28.9731H136.234Z" fill="black"/>
<path d="M160.728 29.356C159.175 29.356 157.782 28.9944 156.548 28.2712C155.314 27.5479 154.336 26.5588 153.613 25.3038C152.889 24.0275 152.528 22.5811 152.528 20.9644C152.528 19.3053 152.889 17.8482 153.613 16.5932C154.336 15.3169 155.314 14.3171 156.548 13.5939C157.803 12.8707 159.196 12.509 160.728 12.509C162.302 12.509 163.706 12.8707 164.94 13.5939C166.173 14.3171 167.152 15.3169 167.875 16.5932C168.598 17.8482 168.96 19.2946 168.96 20.9325C168.96 22.5704 168.598 24.0275 167.875 25.3038C167.152 26.5588 166.173 27.5479 164.94 28.2712C163.706 28.9944 162.302 29.356 160.728 29.356ZM160.728 25.2081C161.366 25.2081 161.93 25.0485 162.419 24.7295C162.93 24.4104 163.334 23.9318 163.632 23.2937C163.929 22.6555 164.078 21.8685 164.078 20.9325C164.078 19.9966 163.929 19.2095 163.632 18.5714C163.334 17.9333 162.94 17.4547 162.451 17.1356C161.962 16.8165 161.398 16.657 160.76 16.657C160.122 16.657 159.547 16.8165 159.037 17.1356C158.548 17.4547 158.154 17.9333 157.856 18.5714C157.559 19.2095 157.41 19.9966 157.41 20.9325C157.41 21.8685 157.559 22.6555 157.856 23.2937C158.154 23.9318 158.548 24.4104 159.037 24.7295C159.547 25.0485 160.111 25.2081 160.728 25.2081Z" fill="black"/>
</svg>
